<svg version="1.1" id="Layer_1" xmlns="http://www.w3.org/2000/svg" xmlns:xlink="http://www.w3.org/1999/xlink" x="0px" y="0px"
	 width="100%" viewBox="0 0 325 260" enable-background="new 0 0 325 260" xml:space="preserve">
<path fill="#000000" opacity="1.000000" stroke="none" 
	d="
M248.000000,261.000000 
	C165.368439,261.000000 83.236885,261.000000 1.052665,261.000000 
	C1.052665,174.405502 1.052665,87.810966 1.052665,1.108215 
	C109.214798,1.108215 217.429749,1.108215 325.822327,1.108215 
	C325.822327,87.666359 325.822327,174.333160 325.822327,261.000000 
	C300.144409,261.000000 274.322205,261.000000 248.000000,261.000000 
M148.517685,124.560158 
	C148.764511,124.585556 149.011337,124.610962 149.632233,125.303497 
	C153.090683,135.882141 156.541718,146.463196 160.011139,157.038223 
	C161.455017,161.439285 164.003021,164.490646 168.568024,164.557663 
	C166.690338,159.768311 164.636581,155.099060 163.013779,150.284531 
	C158.027420,135.491028 153.152054,120.659355 148.352234,105.804176 
	C146.832352,101.100266 144.393860,97.672836 138.982925,97.743019 
	C133.801147,97.810234 131.442886,101.239792 129.981812,105.675568 
	C125.566216,119.081100 121.113411,132.474380 116.665108,145.869125 
	C114.636398,151.977951 112.584190,158.078995 110.416893,164.559586 
	C118.820816,164.559586 126.608566,164.559586 135.007233,164.559586 
	C136.977264,158.174042 139.008392,151.590454 141.673050,144.544235 
	C141.850708,142.718231 142.028381,140.892227 142.864243,138.827271 
	C143.868866,136.225067 144.873489,133.622864 146.250381,130.402313 
	C146.801147,128.594711 147.351913,126.787109 148.517685,124.560158 
M182.371872,130.972275 
	C181.710495,131.275055 181.049118,131.577835 180.387741,131.880615 
	C180.812881,132.237259 181.238037,132.593887 181.637589,133.666733 
	C180.334564,134.933960 179.031540,136.201202 177.328964,136.800705 
	C173.879059,126.236946 170.428009,115.673553 166.979843,105.109230 
	C165.488266,100.539444 162.894394,97.354248 158.090439,97.352882 
	C159.766251,101.297935 161.694839,105.133080 163.053177,109.160553 
	C168.299469,124.715790 173.396805,140.321671 178.475449,155.932800 
	C179.974854,160.541687 182.258087,164.159317 187.699997,164.197250 
	C193.154053,164.235275 195.497513,160.629715 197.012878,156.036194 
	C202.363007,139.818329 207.767242,123.618324 213.141739,107.408485 
	C214.221802,104.150932 215.261429,100.879982 216.417862,97.312370 
	C208.019989,97.312370 200.221497,97.312370 191.939026,97.312370 
	C189.606262,104.728882 187.235382,112.266571 184.258896,120.233147 
	C183.846313,123.817055 183.433746,127.400970 182.371872,130.972275 
M166.899231,133.417160 
	C163.715332,123.818794 160.514816,114.225891 157.355087,104.619576 
	C155.929138,100.284325 153.223022,97.722038 148.895035,97.541779 
	C150.711899,102.076591 152.685410,106.389641 154.186707,110.861237 
	C159.252319,125.949287 164.133789,141.099075 169.120270,156.213821 
	C171.149002,162.363159 173.633240,164.295395 177.249649,163.835007 
	C173.913376,154.121246 170.492508,144.161224 166.899231,133.417160 
z"/>
<path fill="#EFEFEF" opacity="1.000000" stroke="none" 
	d="
M141.039520,145.006866 
	C139.008392,151.590454 136.977264,158.174042 135.007233,164.559586 
	C126.608566,164.559586 118.820816,164.559586 110.416893,164.559586 
	C112.584190,158.078995 114.636398,151.977951 116.665108,145.869125 
	C121.113411,132.474380 125.566216,119.081100 129.981812,105.675568 
	C131.442886,101.239792 133.801147,97.810234 138.982925,97.743019 
	C144.393860,97.672836 146.832352,101.100266 148.352234,105.804176 
	C153.152054,120.659355 158.027420,135.491028 163.013779,150.284531 
	C164.636581,155.099060 166.690338,159.768311 168.568024,164.557663 
	C164.003021,164.490646 161.455017,161.439285 160.011139,157.038223 
	C156.541718,146.463196 153.090683,135.882141 149.419800,124.607193 
	C148.174667,121.271446 147.141937,118.632004 146.094452,115.612030 
	C145.395248,113.397652 144.710831,111.563805 144.112244,109.389847 
	C143.065567,107.237427 141.933029,105.425117 140.471054,103.397354 
	C135.799820,102.179153 135.191772,105.614891 134.272079,108.345192 
	C129.404114,122.796562 124.639023,137.282623 119.852386,151.761307 
	C119.002953,154.330673 118.220055,156.922028 117.406441,159.503235 
	C117.938354,159.883041 118.470276,160.262848 119.002190,160.642654 
	C120.263618,159.281723 122.098328,158.131226 122.688400,156.523849 
	C125.415337,149.095474 127.796104,141.540024 130.714264,134.036926 
	C132.369888,134.543991 133.612167,135.044220 134.883118,135.941742 
	C132.356750,144.046906 129.801712,151.754791 127.246658,159.462692 
	C127.622536,159.786514 127.998413,160.110336 128.374298,160.434174 
	C129.551895,159.333694 131.230453,158.448166 131.812271,157.092072 
	C133.494217,153.171707 134.734756,149.061935 136.556061,145.020950 
	C138.322174,145.012527 139.680847,145.009689 141.039520,145.006866 
z"/>
<path fill="#F1F1F1" opacity="1.000000" stroke="none" 
	d="
M184.864502,119.804260 
	C187.235382,112.266571 189.606262,104.728882 191.939026,97.312370 
	C200.221497,97.312370 208.019989,97.312370 216.417862,97.312370 
	C215.261429,100.879982 214.221802,104.150932 213.141739,107.408485 
	C207.767242,123.618324 202.363007,139.818329 197.012878,156.036194 
	C195.497513,160.629715 193.154053,164.235275 187.699997,164.197250 
	C182.258087,164.159317 179.974854,160.541687 178.475449,155.932800 
	C173.396805,140.321671 168.299469,124.715790 163.053177,109.160553 
	C161.694839,105.133080 159.766251,101.297935 158.090439,97.352882 
	C162.894394,97.354248 165.488266,100.539444 166.979843,105.109230 
	C170.428009,115.673553 173.879059,126.236946 177.553543,137.489960 
	C178.769318,140.786377 179.760529,143.393539 180.800735,146.384460 
	C181.566650,148.839844 182.283569,150.911484 182.992889,153.342819 
	C184.344620,155.440872 185.703949,157.179214 187.433136,158.976990 
	C189.430679,157.216782 191.808212,155.662964 192.563004,153.533859 
	C197.095779,140.748123 201.264130,127.833008 205.535858,114.955032 
	C206.910797,110.809998 208.229111,106.646179 209.573318,102.490959 
	C209.031235,102.097694 208.489136,101.704430 207.947037,101.311165 
	C206.683319,102.644608 204.939560,103.767197 204.244186,105.350281 
	C201.987137,110.488815 200.114151,115.796036 197.752930,120.997307 
	C196.324249,120.634674 195.235916,120.313034 194.101685,119.611328 
	C195.912903,113.671310 197.770035,108.111351 199.627167,102.551399 
	C199.199738,102.223587 198.772324,101.895775 198.344894,101.567963 
	C197.216095,102.826424 195.632462,103.901970 195.039658,105.375999 
	C192.841400,110.842209 190.969635,116.439720 188.615356,121.983307 
	C187.125153,121.253891 185.994827,120.529076 184.864502,119.804260 
z"/>
<path fill="#090909" opacity="1.000000" stroke="none" 
	d="
M188.975220,121.987915 
	C190.969635,116.439720 192.841400,110.842209 195.039658,105.375999 
	C195.632462,103.901970 197.216095,102.826424 198.344894,101.567963 
	C198.772324,101.895775 199.199738,102.223587 199.627167,102.551399 
	C197.770035,108.111351 195.912903,113.671310 193.918320,119.904556 
	C193.768555,122.031654 193.756256,123.485451 193.434464,125.100594 
	C191.892853,127.958412 190.660721,130.654877 188.915558,134.474121 
	C196.160522,131.943024 197.616943,129.440216 196.004303,124.639435 
	C196.805099,123.215752 197.449188,122.127022 198.093277,121.038300 
	C200.114151,115.796036 201.987137,110.488815 204.244186,105.350281 
	C204.939560,103.767197 206.683319,102.644608 207.947037,101.311165 
	C208.489136,101.704430 209.031235,102.097694 209.573318,102.490959 
	C208.229111,106.646179 206.910797,110.809998 205.535858,114.955032 
	C201.264130,127.833008 197.095779,140.748123 192.563004,153.533859 
	C191.808212,155.662964 189.430679,157.216782 187.384171,158.602325 
	C187.353333,155.140778 189.573883,152.143311 187.488190,149.032074 
	C191.986649,146.640442 192.314560,143.618164 188.693985,139.882309 
	C185.855469,142.388336 183.940887,145.097015 185.790833,149.386795 
	C184.801605,150.799545 183.901047,151.891327 183.000473,152.983109 
	C182.283569,150.911484 181.566650,148.839844 181.112717,146.186157 
	C182.501846,142.114029 183.628006,138.623962 185.010208,134.950500 
	C184.526642,134.172958 183.787033,133.578827 182.703278,132.898148 
	C182.127167,132.857925 181.895172,132.904221 181.663177,132.950531 
	C181.238037,132.593887 180.812881,132.237259 180.387741,131.880615 
	C181.049118,131.577835 181.710495,131.275055 182.679779,130.966568 
	C182.987671,130.960861 183.014893,130.929932 183.219788,131.193726 
	C184.422852,131.460709 185.421005,131.463913 186.419159,131.467117 
	C186.231644,130.959381 186.044128,130.451660 185.996689,129.615509 
	C187.082932,126.854050 188.029083,124.420982 188.975220,121.987915 
z"/>
<path fill="#EEEEEE" opacity="1.000000" stroke="none" 
	d="
M166.985443,133.809174 
	C170.492508,144.161224 173.913376,154.121246 177.249649,163.835007 
	C173.633240,164.295395 171.149002,162.363159 169.120270,156.213821 
	C164.133789,141.099075 159.252319,125.949287 154.186707,110.861237 
	C152.685410,106.389641 150.711899,102.076591 148.895035,97.541779 
	C153.223022,97.722038 155.929138,100.284325 157.355087,104.619576 
	C160.514816,114.225891 163.715332,123.818794 166.985443,133.809174 
z"/>
<path fill="#848485" opacity="1.000000" stroke="none" 
	d="
M184.754166,135.133881 
	C183.628006,138.623962 182.501846,142.114029 181.063705,145.802414 
	C179.760529,143.393539 178.769318,140.786377 177.753326,137.823822 
	C179.031540,136.201202 180.334564,134.933960 181.650391,133.308624 
	C181.895172,132.904221 182.127167,132.857925 182.713730,133.221741 
	C183.630264,134.132553 184.192215,134.633209 184.754166,135.133881 
z"/>
<path fill="#C2C2C2" opacity="1.000000" stroke="none" 
	d="
M188.615356,121.983307 
	C188.029083,124.420982 187.082932,126.854050 185.703461,129.733276 
	C184.518387,130.429626 183.766647,130.679779 183.014893,130.929932 
	C183.014893,130.929932 182.987671,130.960861 183.004425,130.972870 
	C183.433746,127.400970 183.846313,123.817055 184.561707,120.018707 
	C185.994827,120.529076 187.125153,121.253891 188.615356,121.983307 
z"/>
<path fill="#AEAEAF" opacity="1.000000" stroke="none" 
	d="
M145.878113,131.020660 
	C144.873489,133.622864 143.868866,136.225067 142.225143,138.823639 
	C140.994156,138.513870 140.402283,138.207748 139.828766,137.541992 
	C140.472153,134.200745 141.097153,131.219147 141.850891,128.609619 
	C143.279114,129.661362 144.578613,130.341003 145.878113,131.020660 
z"/>
<path fill="#7D7D7E" opacity="1.000000" stroke="none" 
	d="
M146.109207,115.992569 
	C147.141937,118.632004 148.174667,121.271446 149.232758,124.273621 
	C149.011337,124.610962 148.764511,124.585556 147.862244,124.773682 
	C145.880020,124.338669 144.553238,123.690125 143.275620,122.687851 
	C144.252914,120.220268 145.181061,118.106422 146.109207,115.992569 
z"/>
<path fill="#CFCFCF" opacity="1.000000" stroke="none" 
	d="
M139.810394,137.901642 
	C140.402283,138.207748 140.994156,138.513870 141.896057,138.943115 
	C142.028381,140.892227 141.850708,142.718231 141.356293,144.775543 
	C139.680847,145.009689 138.322174,145.012527 136.515030,144.659515 
	C137.314499,142.169662 138.562454,140.035645 139.810394,137.901642 
z"/>
<path fill="#949494" opacity="1.000000" stroke="none" 
	d="
M143.226471,123.041580 
	C144.553238,123.690125 145.880020,124.338669 147.554733,124.983368 
	C147.351913,126.787109 146.801147,128.594711 146.064240,130.711487 
	C144.578613,130.341003 143.279114,129.661362 141.914856,128.281921 
	C142.308884,126.068611 142.767685,124.555099 143.226471,123.041580 
z"/>
<path fill="#0B0B0B" opacity="1.000000" stroke="none" 
	d="
M143.275620,122.687851 
	C142.767685,124.555099 142.308884,126.068611 141.786133,127.909836 
	C141.097153,131.219147 140.472153,134.200745 139.828766,137.541992 
	C138.562454,140.035645 137.314499,142.169662 136.107574,144.665100 
	C134.734756,149.061935 133.494217,153.171707 131.812271,157.092072 
	C131.230453,158.448166 129.551895,159.333694 128.374298,160.434174 
	C127.998413,160.110336 127.622536,159.786514 127.246658,159.462692 
	C129.801712,151.754791 132.356750,144.046906 134.970047,135.599365 
	C134.879318,132.622879 134.730347,130.386047 134.581375,128.149200 
	C134.160721,128.128738 133.740082,128.108261 133.319427,128.087799 
	C132.313263,130.068573 131.307098,132.049347 130.300934,134.030121 
	C127.796104,141.540024 125.415337,149.095474 122.688400,156.523849 
	C122.098328,158.131226 120.263618,159.281723 119.002190,160.642654 
	C118.470276,160.262848 117.938354,159.883041 117.406441,159.503235 
	C118.220055,156.922028 119.002953,154.330673 119.852386,151.761307 
	C124.639023,137.282623 129.404114,122.796562 134.272079,108.345192 
	C135.191772,105.614891 135.799820,102.179153 140.190796,103.716049 
	C139.196915,108.296921 135.833817,112.019508 138.981750,117.703308 
	C140.917572,114.643646 142.471985,112.186798 144.026413,109.729958 
	C144.710831,111.563805 145.395248,113.397652 146.094452,115.612030 
	C145.181061,118.106422 144.252914,120.220268 143.275620,122.687851 
M139.894073,121.542633 
	C138.428391,120.692131 136.962708,119.841637 134.943741,118.670090 
	C134.397614,123.932060 136.837067,123.406929 139.894073,121.542633 
z"/>
<path fill="#7D7D7E" opacity="1.000000" stroke="none" 
	d="
M144.112244,109.389847 
	C142.471985,112.186798 140.917572,114.643646 138.981750,117.703308 
	C135.833817,112.019508 139.196915,108.296921 140.520264,103.931496 
	C141.933029,105.425117 143.065567,107.237427 144.112244,109.389847 
z"/>
<path fill="#DCDCDD" opacity="1.000000" stroke="none" 
	d="
M130.714264,134.036926 
	C131.307098,132.049347 132.313263,130.068573 133.319427,128.087799 
	C133.740082,128.108261 134.160721,128.128738 134.581375,128.149200 
	C134.730347,130.386047 134.879318,132.622879 134.941376,135.202087 
	C133.612167,135.044220 132.369888,134.543991 130.714264,134.036926 
z"/>
<path fill="#707071" opacity="1.000000" stroke="none" 
	d="
M182.992889,153.342819 
	C183.901047,151.891327 184.801605,150.799545 186.099548,149.378815 
	C186.702652,149.056335 186.908401,149.062836 187.114151,149.069321 
	C189.573883,152.143311 187.353333,155.140778 187.014313,158.542877 
	C185.703949,157.179214 184.344620,155.440872 182.992889,153.342819 
z"/>
<path fill="#E3E3E4" opacity="1.000000" stroke="none" 
	d="
M197.752930,120.997299 
	C197.449188,122.127022 196.805099,123.215752 195.653595,124.647919 
	C194.678772,124.973984 194.211365,124.956619 193.743958,124.939255 
	C193.756256,123.485451 193.768555,122.031654 193.964233,120.284622 
	C195.235916,120.313034 196.324249,120.634674 197.752930,120.997299 
z"/>
<path fill="#8D8D8E" opacity="1.000000" stroke="none" 
	d="
M187.488190,149.032074 
	C186.908401,149.062836 186.702652,149.056335 186.188187,149.057831 
	C183.940887,145.097015 185.855469,142.388336 188.693985,139.882309 
	C192.314560,143.618164 191.986649,146.640442 187.488190,149.032074 
z"/>
<path fill="#C4C4C5" opacity="1.000000" stroke="none" 
	d="
M193.434464,125.100601 
	C194.211365,124.956619 194.678772,124.973984 195.496872,124.982872 
	C197.616943,129.440216 196.160522,131.943024 188.915558,134.474121 
	C190.660721,130.654877 191.892853,127.958412 193.434464,125.100601 
z"/>
<path fill="#0A0A0A" opacity="1.000000" stroke="none" 
	d="
M183.219788,131.193726 
	C183.766647,130.679779 184.518387,130.429626 185.563385,130.061691 
	C186.044128,130.451660 186.231644,130.959381 186.419159,131.467117 
	C185.421005,131.463913 184.422852,131.460709 183.219788,131.193726 
z"/>
<path fill="#0A0A0A" opacity="1.000000" stroke="none" 
	d="
M185.010208,134.950500 
	C184.192215,134.633209 183.630264,134.132553 183.057861,133.308289 
	C183.787033,133.578827 184.526642,134.172958 185.010208,134.950500 
z"/>
<path fill="#AEAEAF" opacity="1.000000" stroke="none" 
	d="
M139.770142,121.931801 
	C136.837067,123.406929 134.397614,123.932060 134.943741,118.670090 
	C136.962708,119.841637 138.428391,120.692131 139.770142,121.931801 
z"/>
</svg>