<svg version="1.1" id="Layer_1" xmlns="http://www.w3.org/2000/svg" xmlns:xlink="http://www.w3.org/1999/xlink" x="0px" y="0px"
	 width="100%" viewBox="0 0 600 600" enable-background="new 0 0 600 600" xml:space="preserve">
<path fill="#FFFFFF" opacity="1.000000" stroke="none" 
	d="
M281.000000,601.000000 
	C187.333328,601.000000 94.166664,601.000000 1.000000,601.000000 
	C1.000000,401.000000 1.000000,201.000000 1.000000,1.000000 
	C201.000000,1.000000 401.000000,1.000000 601.000000,1.000000 
	C601.000000,201.000000 601.000000,401.000000 601.000000,601.000000 
	C494.500000,601.000000 388.000000,601.000000 281.000000,601.000000 
M298.953125,355.649841 
	C299.275940,355.829895 299.598785,356.009949 299.884369,356.122223 
	C299.884369,356.122223 299.840454,356.186249 300.154053,356.796967 
	C304.741943,359.517090 309.045746,363.020782 313.972229,364.806824 
	C327.414032,369.679932 341.375946,369.021851 355.171173,366.525208 
	C365.084930,364.731049 374.277069,360.979462 381.693909,352.703400 
	C387.329437,343.920776 394.085266,335.652466 398.396118,326.261780 
	C412.901978,294.662476 426.544586,262.666748 440.501434,230.815674 
	C444.145691,222.499039 447.731659,214.156830 451.667938,205.080353 
	C437.820129,205.080353 424.889465,204.943573 411.962952,205.115845 
	C396.672119,205.319641 383.916321,211.161942 373.718475,222.695038 
	C364.144135,233.523041 359.062256,246.768066 353.231873,259.641266 
	C349.273163,268.381927 345.142395,277.044617 341.015717,285.010834 
	C338.937286,278.693604 336.858887,272.376343 334.821960,265.298004 
	C332.059570,256.399750 329.371918,247.477448 326.519287,238.608215 
	C320.459351,219.767242 308.186554,207.794388 288.068878,205.623276 
	C274.097900,204.115509 259.958282,204.379883 246.620804,209.341629 
	C241.087585,211.400085 236.399231,215.729584 230.754440,219.420746 
	C226.453323,225.531754 222.152206,231.642761 217.302383,238.192444 
	C215.534500,242.137878 213.766617,246.083298 211.499374,250.502686 
	C210.339371,253.378464 209.179367,256.254242 207.539139,259.612213 
	C205.288269,264.973816 203.037384,270.335388 200.264725,276.176605 
	C186.904007,306.565796 173.543289,336.954956 160.023972,367.704865 
	C175.470703,367.704865 190.143219,368.423828 204.713287,367.509674 
	C220.370773,366.527344 233.234818,358.849365 241.512253,345.548584 
	C248.140198,334.898376 253.070984,323.191986 259.161835,311.373199 
	C260.358856,308.561157 261.555908,305.749115 263.155426,302.341034 
	C265.145233,297.248352 267.135010,292.155701 269.801422,287.269470 
	C271.132812,290.203064 272.464233,293.136658 273.832764,296.859253 
	C275.887238,302.898071 277.941681,308.936920 279.995117,314.997314 
	C279.995117,314.997314 280.009735,315.009186 279.963257,315.655548 
	C280.308594,316.425842 280.653961,317.196136 280.985535,318.735229 
	C281.975525,321.522614 282.965546,324.309998 283.965668,327.857147 
	C285.847534,332.659485 287.729401,337.461823 289.519806,342.370728 
	C289.519806,342.370728 289.530640,342.510742 289.641663,343.163971 
	C292.308990,346.807922 294.976318,350.451904 297.905914,354.634674 
	C298.243622,354.827057 298.581360,355.019409 298.918610,355.071381 
	C298.918610,355.071381 298.782288,355.105042 298.953125,355.649841 
M228.668137,441.380920 
	C231.331955,442.584229 233.904236,444.483215 236.678360,444.848206 
	C242.737396,445.645416 248.908752,446.076294 255.017105,445.931885 
	C293.963165,445.011047 333.038818,448.673340 371.839752,442.924072 
	C379.588409,441.775909 387.330353,440.045441 394.773315,437.646362 
	C397.602417,436.734467 400.889099,433.463470 401.473969,430.733582 
	C401.846405,428.995056 397.936432,425.845062 395.415955,424.090118 
	C391.032684,421.038177 386.089294,419.208221 380.507416,419.936859 
	C379.593994,420.056091 378.606659,419.401825 377.633728,419.306122 
	C371.121735,418.665710 364.603333,418.090332 358.089600,417.466705 
	C356.852936,417.348358 355.615295,417.168549 354.399933,416.913208 
	C351.522980,416.308716 348.662720,415.104553 345.789398,415.085266 
	C322.972046,414.932068 300.153168,415.005341 277.334778,414.994934 
	C270.710297,414.991913 263.937378,415.807281 257.498047,414.701385 
	C249.039215,413.248627 241.825516,416.474640 234.450241,419.025330 
	C231.221756,420.141876 228.601913,420.980591 225.058838,420.345459 
	C218.783752,419.220581 212.638351,419.805786 207.157532,424.099121 
	C203.944656,426.615875 203.107376,429.823914 204.352188,432.843170 
	C205.324646,435.201752 208.019073,437.788269 210.435577,438.425262 
	C216.085358,439.914551 222.028107,440.292419 228.668137,441.380920 
z"/>
<path fill="#F3574F" opacity="1.000000" stroke="none" 
	d="
M341.088562,285.742157 
	C345.142395,277.044617 349.273163,268.381927 353.231873,259.641266 
	C359.062256,246.768066 364.144135,233.523041 373.718475,222.695038 
	C383.916321,211.161942 396.672119,205.319641 411.962952,205.115845 
	C424.889465,204.943573 437.820129,205.080353 451.667938,205.080353 
	C447.731659,214.156830 444.145691,222.499039 440.501434,230.815674 
	C426.544586,262.666748 412.901978,294.662476 398.396118,326.261780 
	C394.085266,335.652466 387.329437,343.920776 380.944275,352.837311 
	C373.214813,353.721649 367.631775,351.478851 363.820251,345.377808 
	C361.234192,341.238312 358.611237,337.121918 355.969421,332.629883 
	C353.943115,326.183075 351.952118,320.101532 349.827484,313.678406 
	C347.458862,306.891754 345.223877,300.446686 343.241058,293.794189 
	C342.691650,290.971893 341.890106,288.357025 341.088562,285.742157 
z"/>
<path fill="#F3574F" opacity="1.000000" stroke="none" 
	d="
M231.326675,219.026291 
	C236.399231,215.729584 241.087585,211.400085 246.620804,209.341629 
	C259.958282,204.379883 274.097900,204.115509 288.068878,205.623276 
	C308.186554,207.794388 320.459351,219.767242 326.519287,238.608215 
	C329.371918,247.477448 332.059570,256.399750 334.580627,265.914917 
	C334.515594,269.231354 334.844818,271.934906 334.774048,274.627930 
	C334.753021,275.426636 333.751343,276.438202 332.941895,276.922333 
	C331.685669,277.673645 330.189514,278.011627 328.829132,278.603119 
	C322.577118,281.321503 316.308777,284.005341 310.104858,286.830139 
	C307.204498,288.150757 304.474457,289.840790 301.600800,291.225616 
	C296.554993,293.657166 291.333282,295.753143 286.421234,298.423737 
	C282.336212,300.644684 278.713531,302.909210 276.025665,296.825134 
	C275.811249,296.339844 274.563293,296.311157 273.795624,296.070251 
	C272.464233,293.136658 271.132812,290.203064 269.271912,287.012024 
	C268.880066,286.168213 269.307343,285.435089 269.099060,285.023987 
	C268.553223,283.946594 267.730072,283.009674 267.291504,281.768921 
	C265.389496,274.003052 263.213470,266.485016 260.985901,258.580750 
	C257.038239,248.620361 253.742645,238.738342 249.045151,229.575027 
	C245.638016,222.928772 239.704712,218.382660 231.326675,219.026291 
z"/>
<path fill="#F3574F" opacity="1.000000" stroke="none" 
	d="
M258.755005,311.954346 
	C253.070984,323.191986 248.140198,334.898376 241.512253,345.548584 
	C233.234818,358.849365 220.370773,366.527344 204.713287,367.509674 
	C190.143219,368.423828 175.470703,367.704865 160.023972,367.704865 
	C173.543289,336.954956 186.904007,306.565796 200.673859,276.149658 
	C201.656219,275.965210 202.453415,275.482086 202.769073,275.699188 
	C207.435471,278.908508 214.069824,278.112671 217.836441,283.338013 
	C218.898697,284.811676 221.200485,285.361847 222.870728,286.433807 
	C225.898666,288.377197 228.872116,290.405212 231.881607,292.377625 
	C235.180908,294.540039 238.258072,297.278931 241.853455,298.701599 
	C248.897568,301.488892 256.232849,303.538666 258.755005,311.954346 
z"/>
<path fill="#F7F7F7" opacity="1.000000" stroke="none" 
	d="
M228.260193,441.250641 
	C222.028107,440.292419 216.085358,439.914551 210.435577,438.425262 
	C208.019073,437.788269 205.324646,435.201752 204.352188,432.843170 
	C203.107376,429.823914 203.944656,426.615875 207.157532,424.099121 
	C212.638351,419.805786 218.783752,419.220581 225.058838,420.345459 
	C228.601913,420.980591 231.221756,420.141876 234.450241,419.025330 
	C241.825516,416.474640 249.039215,413.248627 257.498047,414.701385 
	C263.937378,415.807281 270.710297,414.991913 277.334778,414.994934 
	C300.153168,415.005341 322.972046,414.932068 345.789398,415.085266 
	C348.662720,415.104553 351.522980,416.308716 354.399933,416.913208 
	C355.615295,417.168549 356.852936,417.348358 358.089600,417.466705 
	C364.603333,418.090332 371.121735,418.665710 377.633728,419.306122 
	C378.606659,419.401825 379.593994,420.056091 380.507416,419.936859 
	C386.089294,419.208221 391.032684,421.038177 395.415955,424.090118 
	C397.936432,425.845062 401.846405,428.995056 401.473969,430.733582 
	C400.889099,433.463470 397.602417,436.734467 394.773315,437.646362 
	C387.330353,440.045441 379.588409,441.775909 371.839752,442.924072 
	C333.038818,448.673340 293.963165,445.011047 255.017105,445.931885 
	C248.908752,446.076294 242.737396,445.645416 236.678360,444.848206 
	C233.904236,444.483215 231.331955,442.584229 228.260193,441.250641 
M341.399017,422.998535 
	C335.659363,422.333099 329.908417,421.017578 324.182007,421.116791 
	C301.625061,421.507599 279.063782,422.099640 256.533905,423.217834 
	C252.003098,423.442719 247.540192,426.149231 243.191406,428.045074 
	C242.253906,428.453796 241.169418,431.056763 241.470764,431.366455 
	C243.480774,433.432312 245.595932,436.063599 248.157806,436.771729 
	C252.225021,437.896057 256.682220,437.537903 260.949158,438.027283 
	C268.291748,438.869293 275.599396,440.042419 282.953430,440.744476 
	C286.029968,441.038208 289.192505,440.546143 292.306946,440.298126 
	C296.220642,439.986359 300.119507,439.357819 304.035400,439.248474 
	C306.816406,439.170837 309.648285,440.142944 312.399811,439.923523 
	C322.074677,439.152069 331.729797,438.116913 341.381927,437.083710 
	C346.782837,436.505615 352.209564,435.979797 357.537445,434.970123 
	C361.625671,434.195343 362.351654,431.472778 359.145386,428.834106 
	C357.055511,427.114227 354.296753,426.044159 351.674255,425.177032 
	C348.633911,424.171783 345.414612,423.707672 341.399017,422.998535 
z"/>
<path fill="#DB4746" opacity="1.000000" stroke="none" 
	d="
M342.988922,294.001587 
	C345.223877,300.446686 347.458862,306.891754 349.408630,313.672180 
	C343.555634,315.277191 336.931091,315.081970 332.666656,318.158295 
	C326.201263,322.822388 318.869019,324.732391 312.000122,328.003693 
	C309.330383,329.275177 306.768921,330.845428 303.994537,331.808136 
	C300.252533,333.106598 296.588806,333.901245 294.842407,338.354523 
	C294.135529,340.157043 291.363129,341.149597 289.530640,342.510742 
	C289.530640,342.510742 289.519806,342.370728 289.700439,341.919983 
	C290.115204,339.894745 290.974548,338.069336 290.462799,336.794189 
	C289.089264,333.371796 287.145691,330.175659 285.351105,326.932556 
	C285.265350,326.777557 284.437683,327.033051 283.955536,327.097412 
	C282.965546,324.309998 281.975525,321.522614 281.188110,318.106201 
	C282.487640,317.375702 283.743011,317.586700 284.656555,317.123505 
	C292.155579,313.321381 299.490906,309.184265 307.072906,305.561096 
	C315.289703,301.634521 323.593567,297.815369 332.118469,294.646210 
	C335.372131,293.436646 339.344238,294.159424 342.988922,294.001587 
z"/>
<path fill="#C2373F" opacity="1.000000" stroke="none" 
	d="
M356.004761,332.995178 
	C358.611237,337.121918 361.234192,341.238312 363.820251,345.377808 
	C367.631775,351.478851 373.214813,353.721649 380.643890,352.974792 
	C374.277069,360.979462 365.084930,364.731049 355.171173,366.525208 
	C341.375946,369.021851 327.414032,369.679932 313.972229,364.806824 
	C309.045746,363.020782 304.741943,359.517090 300.413361,356.441498 
	C303.568817,356.153168 306.932587,357.215118 309.278748,356.112274 
	C318.557678,351.750610 327.484680,346.646240 336.614166,341.957428 
	C339.773041,340.335052 343.172150,339.187378 346.405151,337.700317 
	C349.641724,336.211700 352.807800,334.569885 356.004761,332.995178 
z"/>
<path fill="#CE3E42" opacity="1.000000" stroke="none" 
	d="
M355.969421,332.629883 
	C352.807800,334.569885 349.641724,336.211700 346.405151,337.700317 
	C343.172150,339.187378 339.773041,340.335052 336.614166,341.957428 
	C327.484680,346.646240 318.557678,351.750610 309.278748,356.112274 
	C306.932587,357.215118 303.568817,356.153168 300.256561,356.136139 
	C299.840454,356.186249 299.884369,356.122223 299.809448,355.888306 
	C299.417114,355.471313 299.099701,355.288177 298.782288,355.105042 
	C298.782288,355.105042 298.918610,355.071381 298.805298,354.858765 
	C298.342529,354.462738 297.993103,354.279297 297.643646,354.095856 
	C294.976318,350.451904 292.308990,346.807922 289.586151,342.837341 
	C291.363129,341.149597 294.135529,340.157043 294.842407,338.354523 
	C296.588806,333.901245 300.252533,333.106598 303.994537,331.808136 
	C306.768921,330.845428 309.330383,329.275177 312.000122,328.003693 
	C318.869019,324.732391 326.201263,322.822388 332.666656,318.158295 
	C336.931091,315.081970 343.555634,315.277191 349.542267,314.013763 
	C351.952118,320.101532 353.943115,326.183075 355.969421,332.629883 
z"/>
<path fill="#E9504B" opacity="1.000000" stroke="none" 
	d="
M343.241058,293.794189 
	C339.344238,294.159424 335.372131,293.436646 332.118469,294.646210 
	C323.593567,297.815369 315.289703,301.634521 307.072906,305.561096 
	C299.490906,309.184265 292.155579,313.321381 284.656555,317.123505 
	C283.743011,317.586700 282.487640,317.375702 281.195007,317.721802 
	C280.653961,317.196136 280.308594,316.425842 280.190491,315.207306 
	C280.408722,314.404236 280.399689,314.049438 280.390686,313.694611 
	C280.259155,314.121643 280.127655,314.548706 279.996124,314.975739 
	C277.941681,308.936920 275.887238,302.898071 273.814209,296.464752 
	C274.563293,296.311157 275.811249,296.339844 276.025665,296.825134 
	C278.713531,302.909210 282.336212,300.644684 286.421234,298.423737 
	C291.333282,295.753143 296.554993,293.657166 301.600800,291.225616 
	C304.474457,289.840790 307.204498,288.150757 310.104858,286.830139 
	C316.308777,284.005341 322.577118,281.321503 328.829132,278.603119 
	C330.189514,278.011627 331.685669,277.673645 332.941895,276.922333 
	C333.751343,276.438202 334.753021,275.426636 334.774048,274.627930 
	C334.844818,271.934906 334.515594,269.231354 334.559875,266.295471 
	C336.858887,272.376343 338.937286,278.693604 341.052124,285.376495 
	C341.890106,288.357025 342.691650,290.971893 343.241058,293.794189 
z"/>
<path fill="#C2373F" opacity="1.000000" stroke="none" 
	d="
M231.040558,219.223511 
	C239.704712,218.382660 245.638016,222.928772 249.045151,229.575027 
	C253.742645,238.738342 257.038239,248.620361 260.830078,258.885895 
	C258.723206,260.765533 255.963669,263.446655 254.849854,262.881897 
	C250.194397,260.521484 246.286774,256.689301 241.635849,254.316025 
	C232.909821,249.863358 226.912277,241.623871 217.851105,237.753784 
	C222.152206,231.642761 226.453323,225.531754 231.040558,219.223511 
z"/>
<path fill="#E9504B" opacity="1.000000" stroke="none" 
	d="
M258.958435,311.663757 
	C256.232849,303.538666 248.897568,301.488892 241.853455,298.701599 
	C238.258072,297.278931 235.180908,294.540039 231.881607,292.377625 
	C228.872116,290.405212 225.898666,288.377197 222.870728,286.433807 
	C221.200485,285.361847 218.898697,284.811676 217.836441,283.338013 
	C214.069824,278.112671 207.435471,278.908508 202.769073,275.699188 
	C202.453415,275.482086 201.656219,275.965210 200.934738,275.909851 
	C203.037384,270.335388 205.288269,264.973816 207.822601,259.719482 
	C208.559631,260.702942 208.781143,261.954803 209.501190,262.399628 
	C222.412033,270.375397 235.277832,278.434113 248.384491,286.078644 
	C255.270050,290.094696 261.333344,294.436462 262.752930,302.937073 
	C261.555908,305.749115 260.358856,308.561157 258.958435,311.663757 
z"/>
<path fill="#DB4746" opacity="1.000000" stroke="none" 
	d="
M262.954163,302.639038 
	C261.333344,294.436462 255.270050,290.094696 248.384491,286.078644 
	C235.277832,278.434113 222.412033,270.375397 209.501190,262.399628 
	C208.781143,261.954803 208.559631,260.702942 208.062714,259.478363 
	C209.179367,256.254242 210.339371,253.378464 211.927856,250.443390 
	C213.111206,249.874207 213.866074,249.364334 214.022537,249.258652 
	C215.826599,250.737839 217.483551,252.355286 219.381439,253.607590 
	C227.475891,258.948639 235.502686,264.414185 243.822311,269.385590 
	C251.373642,273.897858 259.272064,277.829285 267.017456,282.016785 
	C267.730072,283.009674 268.553223,283.946594 269.099060,285.023987 
	C269.307343,285.435089 268.880066,286.168213 268.933594,286.908813 
	C267.135010,292.155701 265.145233,297.248352 262.954163,302.639038 
z"/>
<path fill="#CE3E42" opacity="1.000000" stroke="none" 
	d="
M267.291504,281.768921 
	C259.272064,277.829285 251.373642,273.897858 243.822311,269.385590 
	C235.502686,264.414185 227.475891,258.948639 219.381439,253.607590 
	C217.483551,252.355286 215.826599,250.737839 214.022537,249.258652 
	C213.866074,249.364334 213.111206,249.874207 212.177536,250.206390 
	C213.766617,246.083298 215.534500,242.137878 217.576752,237.973114 
	C226.912277,241.623871 232.909821,249.863358 241.635849,254.316025 
	C246.286774,256.689301 250.194397,260.521484 254.849854,262.881897 
	C255.963669,263.446655 258.723206,260.765533 260.881653,259.272125 
	C263.213470,266.485016 265.389496,274.003052 267.291504,281.768921 
z"/>
<path fill="#CE3E42" opacity="1.000000" stroke="none" 
	d="
M283.960602,327.477295 
	C284.437683,327.033051 285.265350,326.777557 285.351105,326.932556 
	C287.145691,330.175659 289.089264,333.371796 290.462799,336.794189 
	C290.974548,338.069336 290.115204,339.894745 289.746155,341.866699 
	C287.729401,337.461823 285.847534,332.659485 283.960602,327.477295 
z"/>
<path fill="#C2373F" opacity="1.000000" stroke="none" 
	d="
M297.774780,354.365265 
	C297.993103,354.279297 298.342529,354.462738 298.805542,354.928955 
	C298.581360,355.019409 298.243622,354.827057 297.774780,354.365265 
z"/>
<path fill="#C2373F" opacity="1.000000" stroke="none" 
	d="
M298.867706,355.377441 
	C299.099701,355.288177 299.417114,355.471313 299.828064,355.922211 
	C299.598785,356.009949 299.275940,355.829895 298.867706,355.377441 
z"/>
<path fill="#EEEEEE" opacity="1.000000" stroke="none" 
	d="
M341.835999,423.003601 
	C345.414612,423.707672 348.633911,424.171783 351.674255,425.177032 
	C354.296753,426.044159 357.055511,427.114227 359.145386,428.834106 
	C362.351654,431.472778 361.625671,434.195343 357.537445,434.970123 
	C352.209564,435.979797 346.782837,436.505615 341.381927,437.083710 
	C331.729797,438.116913 322.074677,439.152069 312.399811,439.923523 
	C309.648285,440.142944 306.816406,439.170837 304.035400,439.248474 
	C300.119507,439.357819 296.220642,439.986359 292.306946,440.298126 
	C289.192505,440.546143 286.029968,441.038208 282.953430,440.744476 
	C275.599396,440.042419 268.291748,438.869293 260.949158,438.027283 
	C256.682220,437.537903 252.225021,437.896057 248.157806,436.771729 
	C245.595932,436.063599 243.480774,433.432312 241.470764,431.366455 
	C241.169418,431.056763 242.253906,428.453796 243.191406,428.045074 
	C247.540192,426.149231 252.003098,423.442719 256.533905,423.217834 
	C279.063782,422.099640 301.625061,421.507599 324.182007,421.116791 
	C329.908417,421.017578 335.659363,422.333099 341.835999,423.003601 
M334.550720,426.998779 
	C327.874939,426.331116 321.209595,425.256042 314.521088,425.084534 
	C302.370087,424.772919 290.198975,424.773010 278.049500,425.114288 
	C273.378998,425.245483 268.707367,426.508545 264.119690,427.604919 
	C262.955353,427.883179 261.346161,429.484619 261.327972,430.502899 
	C261.308716,431.578613 262.756134,433.329803 263.892181,433.663025 
	C268.476501,435.007629 273.145386,436.542023 277.861023,436.863953 
	C288.617798,437.598236 299.457703,438.359406 310.193390,437.787231 
	C319.835266,437.273376 329.383667,434.998230 338.970490,433.482239 
	C339.455200,433.405579 340.093414,433.298218 340.348083,432.966003 
	C340.983337,432.137268 341.959503,431.093445 341.838806,430.278015 
	C341.675262,429.173096 340.830902,427.697693 339.887939,427.294220 
	C338.603516,426.744629 336.950562,427.056427 334.550720,426.998779 
z"/>
<path fill="#DB4746" opacity="1.000000" stroke="none" 
	d="
M279.995605,314.986511 
	C280.127655,314.548706 280.259155,314.121643 280.390686,313.694611 
	C280.399689,314.049438 280.408722,314.404236 280.213745,314.884125 
	C280.009735,315.009186 279.995117,314.997314 279.995605,314.986511 
z"/>
<path fill="#E5E5E5" opacity="1.000000" stroke="none" 
	d="
M335.003174,426.998840 
	C336.950562,427.056427 338.603516,426.744629 339.887939,427.294220 
	C340.830902,427.697693 341.675262,429.173096 341.838806,430.278015 
	C341.959503,431.093445 340.983337,432.137268 340.348083,432.966003 
	C340.093414,433.298218 339.455200,433.405579 338.970490,433.482239 
	C329.383667,434.998230 319.835266,437.273376 310.193390,437.787231 
	C299.457703,438.359406 288.617798,437.598236 277.861023,436.863953 
	C273.145386,436.542023 268.476501,435.007629 263.892181,433.663025 
	C262.756134,433.329803 261.308716,431.578613 261.327972,430.502899 
	C261.346161,429.484619 262.955353,427.883179 264.119690,427.604919 
	C268.707367,426.508545 273.378998,425.245483 278.049500,425.114288 
	C290.198975,424.773010 302.370087,424.772919 314.521088,425.084534 
	C321.209595,425.256042 327.874939,426.331116 335.003174,426.998840 
z"/>
</svg>