<?xml version="1.0" standalone="no"?>
<!DOCTYPE svg PUBLIC "-//W3C//DTD SVG 20010904//EN"
 "http://www.w3.org/TR/2001/REC-SVG-20010904/DTD/svg10.dtd">
<svg version="1.0" xmlns="http://www.w3.org/2000/svg"
 width="512.000000pt" height="512.000000pt" viewBox="0 0 512.000000 512.000000"
 preserveAspectRatio="xMidYMid meet">
<metadata>
Created by potrace 1.16, written by Peter Selinger 2001-2019
</metadata>
<g transform="translate(0.000000,512.000000) scale(0.100000,-0.100000)"
fill="#F5F5F5" stroke="none">
<path d="M1613 4848 c-36 -38 -30 -85 21 -186 63 -122 73 -165 58 -245 -16
-86 -15 -128 4 -155 19 -28 65 -52 99 -52 36 0 31 -11 -15 -38 -22 -12 -46
-33 -54 -45 -20 -30 -34 -97 -26 -127 4 -14 3 -33 -2 -44 -7 -12 -6 -22 1 -29
22 -22 12 -59 -25 -94 -28 -26 -34 -37 -25 -46 9 -9 18 -4 37 21 30 38 74 45
74 12 0 -21 33 -29 45 -10 3 6 28 10 54 10 52 0 60 5 163 93 l57 48 -6 -50
c-7 -63 7 -67 40 -11 l24 41 6 -101 c6 -124 22 -155 71 -146 40 8 57 -8 65
-62 9 -56 34 -48 44 13 8 52 27 75 62 75 11 0 26 9 33 20 7 11 19 20 27 20 9
0 21 11 27 25 6 14 19 25 29 25 35 0 51 117 24 170 -9 17 -14 30 -12 30 2 0
25 -7 51 -16 31 -11 69 -15 110 -12 122 8 219 103 311 306 27 59 59 130 72
159 13 28 48 88 78 134 60 89 64 105 37 139 -27 33 -110 29 -207 -9 -93 -37
-148 -72 -296 -188 -63 -50 -142 -108 -175 -129 -32 -21 -107 -73 -166 -116
-59 -43 -110 -78 -113 -78 -9 0 -5 39 5 45 11 7 43 65 36 65 -2 0 -14 -17 -27
-37 l-23 -38 -7 40 c-5 31 -6 34 -8 12 0 -15 -11 -43 -24 -62 l-24 -35 -11 64
c-21 109 -61 237 -105 326 -74 152 -223 276 -345 287 -40 4 -50 1 -69 -19z
m202 -148 c77 -77 79 -80 51 -80 -16 0 -44 -5 -63 -12 -27 -10 -38 -9 -67 4
-36 18 -57 55 -36 68 8 5 7 9 -4 13 -22 9 -20 37 2 38 10 0 12 3 5 6 -7 2 -13
13 -13 24 0 41 44 19 125 -61z m48 40 c52 -38 117 -121 161 -207 18 -37 20
-47 6 -38 -6 3 -7 -1 -4 -9 3 -9 11 -13 17 -9 5 3 7 2 4 -4 -3 -5 5 -43 17
-84 13 -41 33 -107 44 -148 l21 -73 -27 6 c-15 3 -38 8 -52 11 -18 4 -15 1 10
-11 19 -9 41 -16 48 -15 6 1 12 -6 12 -15 0 -11 -5 -14 -16 -10 -13 5 -14 4
-5 -7 29 -35 -23 -151 -86 -193 l-24 -15 21 40 c11 23 18 41 15 41 -2 0 -14
-18 -25 -39 -23 -46 -83 -96 -104 -88 -8 3 -16 1 -18 -5 -3 -7 -12 -9 -22 -5
-16 6 -16 8 1 38 10 17 38 52 63 78 l45 46 -40 -4 c-24 -3 -31 -6 -19 -9 20
-3 18 -8 -30 -72 -51 -70 -77 -84 -95 -53 -10 20 20 62 72 101 17 12 26 22 20
22 -6 0 -32 -20 -56 -45 -25 -25 -47 -45 -50 -45 -3 0 -10 14 -17 31 -12 29
-11 32 16 55 28 25 28 25 2 9 -27 -16 -27 -16 -34 9 -3 13 -2 31 2 37 4 7 8
23 9 35 1 31 29 59 82 85 38 18 57 21 121 17 l77 -5 -60 12 c-33 7 -91 18
-130 23 -79 12 -105 33 -105 84 0 27 3 30 25 24 58 -14 77 -15 36 -1 -59 19
-65 27 -57 69 5 27 11 34 23 29 14 -5 13 -3 -1 20 -10 14 -16 38 -14 54 3 25
7 28 38 26 27 -1 31 1 17 8 -22 13 -22 24 3 49 42 42 123 19 191 -52 l31 -33
-27 35 c-15 19 -40 44 -55 55 -36 27 -170 166 -170 176 0 20 40 6 93 -31z
m1176 -42 c-2 -2 -31 -16 -64 -33 -34 -17 -91 -60 -135 -103 -79 -77 -121
-105 -147 -100 -27 5 134 149 216 192 72 38 122 57 130 50 2 -2 2 -5 0 -6z m1
-56 c34 -27 14 -54 -57 -77 l-58 -20 55 -5 c54 -5 55 -5 52 -35 -4 -37 -18
-55 -46 -56 -11 0 -15 -3 -8 -6 18 -7 15 -38 -7 -57 -16 -14 -37 -17 -122 -15
-103 1 -104 2 -110 28 l-7 26 -1 -27 c-1 -17 -8 -29 -21 -33 -16 -5 -18 -10
-10 -31 23 -60 -2 -112 -80 -167 -20 -14 -20 -15 -3 -7 12 5 32 10 45 11 13 0
17 3 11 6 -9 3 -2 18 20 46 30 37 33 46 26 77 -5 19 -6 41 -4 48 5 15 187 17
216 2 42 -23 9 -84 -39 -75 -25 5 -25 5 -4 -4 29 -13 29 -57 0 -88 -15 -16
-34 -23 -62 -24 -38 -1 -39 -2 -11 -8 36 -8 41 -28 16 -61 -19 -24 -20 -24
-56 -7 -48 23 -57 21 -17 -3 19 -11 32 -26 30 -32 -7 -21 -72 -48 -115 -48
-45 0 -185 40 -244 71 -20 10 -76 26 -124 35 -53 11 -89 23 -92 32 -7 16 16
34 31 25 5 -3 6 -1 3 4 -7 11 260 204 355 258 47 27 97 32 117 13 10 -11 11
-10 6 3 -4 11 5 21 35 34 22 10 40 22 40 27 0 5 5 6 12 2 7 -5 8 -3 3 5 -15
25 145 151 191 151 7 0 22 -8 34 -18z m-1262 -57 c1 -1 0 -10 -4 -19 -11 -28
-63 -3 -64 31 0 9 8 9 33 1 17 -6 33 -12 35 -13z m942 -58 c0 -2 -17 -19 -37
-38 l-38 -34 34 38 c33 34 41 42 41 34z m-420 -433 c25 -3 63 -14 85 -23 l40
-16 -40 -6 -40 -6 42 -2 c58 -2 139 -70 86 -72 -14 0 -13 -3 5 -11 23 -12 30
-50 13 -77 -8 -13 -12 -13 -27 0 -16 13 -16 12 -3 -9 13 -22 12 -25 -16 -48
-36 -29 -45 -30 -46 -6 -1 9 -4 4 -8 -13 -5 -23 -12 -31 -34 -33 -25 -3 -27
-1 -29 35 l-1 38 -4 -38 c-5 -47 -36 -70 -82 -61 -44 9 -59 36 -72 129 -17
120 -1 219 28 180 7 -11 13 -14 13 -9 0 6 -5 15 -11 21 -20 20 -2 45 28 39 16
-3 48 -8 73 -12z"/>
<path d="M1728 4723 c6 -2 18 -2 25 0 6 3 1 5 -13 5 -14 0 -19 -2 -12 -5z"/>
<path d="M1750 4666 c0 -2 7 -7 16 -10 8 -3 12 -2 9 4 -6 10 -25 14 -25 6z"/>
<path d="M1820 4526 c0 -3 14 -13 32 -22 17 -9 54 -37 82 -62 l51 -46 -43 45
c-38 41 -122 99 -122 85z"/>
<path d="M2030 4310 c6 -11 13 -20 16 -20 2 0 0 9 -6 20 -6 11 -13 20 -16 20
-2 0 0 -9 6 -20z"/>
<path d="M1848 4313 c7 -3 16 -2 19 1 4 3 -2 6 -13 5 -11 0 -14 -3 -6 -6z"/>
<path d="M1900 4300 c34 -11 60 -11 35 0 -11 5 -29 8 -40 8 -16 0 -15 -2 5 -8z"/>
<path d="M2063 4245 c0 -8 9 -23 19 -32 18 -16 18 -16 12 0 -3 9 -10 17 -16
17 -5 0 -7 4 -3 9 3 5 2 12 -3 15 -5 3 -9 -1 -9 -9z"/>
<path d="M1878 4173 c7 -3 16 -2 19 1 4 3 -2 6 -13 5 -11 0 -14 -3 -6 -6z"/>
<path d="M1958 4163 c12 -2 30 -2 40 0 9 3 -1 5 -23 4 -22 0 -30 -2 -17 -4z"/>
<path d="M1937 4131 c3 -13 13 -21 26 -21 11 0 18 1 16 3 -2 1 -14 10 -26 21
-21 17 -21 17 -16 -3z"/>
<path d="M1779 4109 l-24 -20 30 17 c39 24 40 24 28 24 -6 0 -21 -9 -34 -21z"/>
<path d="M2054 4088 l-19 -23 23 19 c21 18 27 26 19 26 -2 0 -12 -10 -23 -22z"/>
<path d="M1860 4074 c-58 -34 -77 -52 -25 -26 39 20 85 51 75 51 -3 0 -25 -11
-50 -25z"/>
<path d="M2069 4063 c-29 -35 -41 -53 -36 -53 2 0 17 16 31 35 28 36 31 49 5
18z"/>
<path d="M2875 4530 c-13 -5 -14 -9 -5 -9 8 0 24 4 35 9 13 5 14 9 5 9 -8 0
-24 -4 -35 -9z"/>
<path d="M2878 4443 c6 -2 18 -2 25 0 6 3 1 5 -13 5 -14 0 -19 -2 -12 -5z"/>
<path d="M2815 4420 c-3 -6 1 -7 9 -4 18 7 21 14 7 14 -6 0 -13 -4 -16 -10z"/>
<path d="M2628 4363 c12 -2 30 -2 40 0 9 3 -1 5 -23 4 -22 0 -30 -2 -17 -4z"/>
<path d="M2560 4345 c-14 -8 -20 -14 -15 -14 6 0 21 6 35 14 14 8 21 14 15 14
-5 0 -21 -6 -35 -14z"/>
<path d="M2438 4284 c-38 -20 -36 -28 2 -9 17 9 30 18 30 20 0 7 -1 6 -32 -11z"/>
<path d="M2758 4273 c7 -3 16 -2 19 1 4 3 -2 6 -13 5 -11 0 -14 -3 -6 -6z"/>
<path d="M2723 4163 c9 -2 23 -2 30 0 6 3 -1 5 -18 5 -16 0 -22 -2 -12 -5z"/>
<path d="M2358 4153 c23 -2 59 -2 80 0 20 2 1 4 -43 4 -44 0 -61 -2 -37 -4z"/>
<path d="M2491 4146 c2 -2 33 -6 69 -9 40 -4 57 -2 45 3 -19 8 -123 14 -114 6z"/>
<path d="M2645 4122 c31 -14 83 -24 65 -13 -8 5 -31 11 -50 15 -24 4 -28 3
-15 -2z"/>
<path d="M2215 4080 c10 -11 20 -20 23 -20 3 0 -3 9 -13 20 -10 11 -20 20 -23
20 -3 0 3 -9 13 -20z"/>
<path d="M2300 4054 c0 -2 9 -8 20 -14 11 -6 20 -7 20 -2 0 6 -9 12 -20 15
-11 3 -20 3 -20 1z"/>
<path d="M2385 3991 c35 -37 38 -44 27 -62 -8 -13 -9 -18 -2 -14 6 4 19 1 28
-6 14 -11 15 -11 5 1 -7 8 -13 23 -13 35 0 11 -18 34 -43 54 l-42 34 40 -42z"/>
<path d="M2270 4000 c6 -11 13 -20 16 -20 2 0 0 9 -6 20 -6 11 -13 20 -16 20
-2 0 0 -9 6 -20z"/>
<path d="M2221 3994 c0 -11 3 -14 6 -6 3 7 2 16 -1 19 -3 4 -6 -2 -5 -13z"/>
<path d="M2290 3968 c0 -3 20 -25 44 -50 31 -31 44 -38 43 -26 -1 10 -6 18
-11 18 -6 0 -25 14 -43 32 -18 18 -33 29 -33 26z"/>
<path d="M2242 3890 c0 -19 2 -27 5 -17 2 9 2 25 0 35 -3 9 -5 1 -5 -18z"/>
<path d="M2311 3874 c0 -11 3 -14 6 -6 3 7 2 16 -1 19 -3 4 -6 -2 -5 -13z"/>
<path d="M2242 3805 c0 -16 2 -22 5 -12 2 9 2 23 0 30 -3 6 -5 -1 -5 -18z"/>
<path d="M4190 4805 c-13 -14 -20 -25 -15 -25 5 0 0 -7 -11 -15 -10 -8 -15
-15 -11 -15 5 0 -1 -12 -12 -26 -29 -36 -81 -176 -86 -232 -5 -43 -4 -42 9 14
26 112 88 234 138 269 71 49 124 -23 138 -185 l7 -75 1 63 c2 75 -39 211 -72
239 -21 18 -21 18 -4 -2 17 -21 17 -21 -20 -21 -20 0 -46 -3 -57 -8 -15 -6
-13 -1 8 18 15 14 24 26 19 26 -5 0 -19 -11 -32 -25z"/>
<path d="M4326 4472 c-3 -21 -19 -58 -36 -83 l-31 -44 31 35 c25 28 33 33 48
24 26 -17 38 -59 24 -88 -22 -48 -78 -79 -155 -86 l-72 -7 58 -2 c68 -1 110
15 155 59 38 39 43 87 12 115 -12 10 -18 25 -15 32 2 8 0 11 -5 8 -7 -4 -8 8
-4 34 4 23 4 41 2 41 -3 0 -8 -17 -12 -38z"/>
<path d="M4352 4480 c0 -19 2 -27 5 -17 2 9 2 25 0 35 -3 9 -5 1 -5 -18z"/>
<path d="M2146 4441 c-3 -5 1 -14 9 -21 12 -10 15 -10 15 3 0 19 -16 31 -24
18z"/>
<path d="M2307 4368 c-27 -27 -30 -31 -7 -12 19 17 40 30 47 27 15 -5 27 14
13 22 -5 3 -29 -13 -53 -37z"/>
<path d="M4002 4370 c0 -19 2 -27 5 -17 2 9 2 25 0 35 -3 9 -5 1 -5 -18z"/>
<path d="M2181 4354 c0 -11 3 -14 6 -6 3 7 2 16 -1 19 -3 4 -6 -2 -5 -13z"/>
<path d="M4054 4313 c4 -37 2 -42 -12 -34 -10 6 -20 4 -30 -5 -7 -8 -23 -14
-35 -14 -16 0 -18 3 -9 9 10 6 9 10 -7 14 -12 3 -19 1 -15 -4 7 -12 2 -11 -76
6 -107 24 -179 17 -168 -16 4 -11 70 -43 183 -87 22 -8 49 -29 60 -46 40 -61
155 -100 191 -64 14 14 14 19 -5 54 -22 41 -71 104 -71 92 0 -4 16 -28 35 -54
54 -71 44 -104 -28 -90 -42 8 -115 55 -123 79 -3 10 0 25 7 33 11 13 9 14 -13
3 -22 -9 -35 -7 -87 16 -33 15 -58 32 -55 37 4 6 -1 8 -12 4 -23 -7 -49 8 -40
23 9 13 75 14 136 1 89 -20 130 -33 125 -40 -3 -5 5 -6 17 -2 16 4 19 2 13 -8
-6 -9 -4 -11 5 -5 6 4 29 10 49 12 43 6 54 13 19 13 -25 0 -33 14 -52 95 -3
11 -4 1 -2 -22z"/>
<path d="M3858 4253 c6 -2 18 -2 25 0 6 3 1 5 -13 5 -14 0 -19 -2 -12 -5z"/>
<path d="M4110 4195 c13 -14 26 -25 28 -25 3 0 -5 11 -18 25 -13 14 -26 25
-28 25 -3 0 5 -11 18 -25z"/>
<path d="M1286 3879 c-64 -56 -166 -303 -138 -331 9 -9 17 -7 35 12 l22 24
-23 -18 c-12 -11 -25 -16 -29 -13 -8 8 27 127 37 127 4 0 10 14 14 31 4 19 11
29 19 26 6 -2 21 7 32 22 13 18 14 22 3 13 -26 -20 -29 1 -6 39 20 33 21 33
29 11 5 -12 11 -22 14 -22 4 0 4 4 0 9 -3 5 0 13 6 17 17 10 2 -46 -19 -71
-17 -20 -17 -20 4 -2 11 9 24 14 27 10 4 -3 7 -41 7 -84 0 -88 -13 -112 -70
-128 l-35 -9 38 -1 c31 -1 37 -5 37 -22 0 -15 -5 -19 -15 -15 -12 4 -13 2 -3
-14 7 -10 17 -16 23 -12 5 3 5 -1 -2 -9 -7 -8 -15 -34 -19 -57 -3 -23 -10 -39
-15 -36 -5 3 -6 -3 -2 -12 4 -10 2 -15 -3 -12 -15 10 -45 -18 -38 -36 9 -24
29 -19 43 11 l12 26 34 -33 c40 -39 47 -32 11 11 -24 28 -24 30 -10 89 12 52
12 66 0 93 -12 31 -12 35 10 60 23 27 23 33 21 177 -1 82 -5 151 -9 155 -3 3
-22 -8 -42 -26z m-51 -119 c3 -5 1 -10 -4 -10 -6 0 -11 5 -11 10 0 6 2 10 4
10 3 0 8 -4 11 -10z m7 -432 c-7 -7 -12 -8 -12 -2 0 14 12 26 19 19 2 -3 -1
-11 -7 -17z"/>
<path d="M687 3803 c-16 -15 -4 -36 42 -79 34 -31 64 -74 93 -131 28 -56 53
-92 72 -104 27 -17 30 -22 27 -69 -2 -38 1 -52 13 -56 9 -3 16 -13 16 -21 0
-8 18 -31 40 -50 37 -34 40 -40 40 -90 0 -31 4 -53 11 -53 7 0 8 13 4 39 -6
34 -3 42 25 70 17 17 38 31 45 31 11 0 15 20 17 78 l3 77 20 -54 c11 -30 26
-56 33 -59 11 -3 12 0 3 17 -7 12 -9 26 -6 31 3 6 1 10 -5 10 -6 0 -8 5 -5 10
3 6 2 10 -3 10 -5 0 -14 12 -20 28 -21 56 -22 63 -9 56 9 -6 9 -4 -1 8 -10 13
-10 17 -1 20 18 6 -21 57 -44 58 -11 0 -15 4 -11 12 4 6 3 8 -3 5 -6 -4 -33
18 -61 47 -28 30 -53 51 -56 48 -4 -3 -6 0 -6 6 0 7 -4 12 -9 12 -6 0 -31 14
-56 31 -78 53 -186 85 -208 62z m153 -59 c12 -12 8 -14 -33 -14 -34 0 -47 4
-47 14 0 28 50 28 80 0z m91 -45 c61 -39 162 -147 155 -165 -3 -8 -1 -14 4
-14 6 0 10 -9 10 -19 0 -11 5 -23 10 -26 13 -8 2 -108 -16 -152 -14 -32 -34
-53 -34 -34 0 6 -6 8 -13 5 -25 -9 -85 76 -92 129 -4 29 0 39 17 52 22 15 21
15 -18 15 -48 0 -90 36 -81 70 3 11 1 18 -3 15 -15 -9 -43 44 -44 83 0 31 -4
38 -20 38 -10 -1 -21 5 -24 13 -3 10 3 13 27 9 18 -3 34 -1 37 4 10 15 37 8
85 -23z"/>
<path d="M848 3683 c7 -3 16 -2 19 1 4 3 -2 6 -13 5 -11 0 -14 -3 -6 -6z"/>
<path d="M1008 3493 c7 -3 16 -2 19 1 4 3 -2 6 -13 5 -11 0 -14 -3 -6 -6z"/>
<path d="M1069 3443 c-13 -16 -12 -17 4 -4 9 7 17 15 17 17 0 8 -8 3 -21 -13z"/>
<path d="M1148 3710 c2 -16 6 -30 8 -30 2 0 4 14 4 30 0 17 -4 30 -8 30 -5 0
-7 -13 -4 -30z"/>
<path d="M2613 3649 c-29 -5 -79 -20 -110 -33 -171 -72 -285 -127 -346 -169
-85 -58 -166 -84 -220 -70 -31 9 -40 8 -44 -4 -9 -22 18 -64 55 -86 l33 -19
-24 -32 c-13 -17 -42 -57 -66 -88 -23 -31 -61 -94 -84 -140 -32 -63 -48 -84
-65 -86 -34 -5 -54 17 -49 51 4 27 3 28 -10 12 -17 -24 -17 -49 2 -85 23 -44
85 -88 85 -60 0 6 -6 10 -14 10 -8 0 -24 9 -37 20 l-24 20 33 -11 c42 -14 72
-6 139 37 75 48 148 118 194 185 60 89 149 162 263 218 119 58 207 81 302 80
l69 -2 -65 -7 c-91 -11 -144 -27 -225 -67 -135 -68 -186 -109 -322 -260 -69
-76 -100 -101 -189 -153 -84 -49 -111 -71 -134 -107 -33 -52 -45 -108 -31
-143 9 -22 10 -20 10 20 1 26 9 59 21 78 25 40 36 42 15 2 -19 -37 -19 -120
-1 -165 l15 -34 -45 -21 c-45 -22 -104 -82 -131 -135 -9 -16 -28 -64 -42 -105
-25 -72 -28 -75 -58 -75 -24 0 -29 -3 -21 -12 6 -7 20 -13 32 -13 15 0 17 -3
7 -9 -8 -5 -9 -11 -3 -14 5 -4 9 -25 9 -47 0 -47 21 -129 39 -150 19 -23 44
-118 44 -167 0 -36 -4 -45 -23 -52 -36 -14 -157 -90 -203 -127 -50 -41 -88
-110 -104 -188 -14 -67 -8 -121 21 -185 l19 -44 -24 -36 c-13 -20 -35 -57 -48
-83 l-23 -48 -50 34 c-112 75 -526 286 -561 286 -21 0 -17 -14 11 -40 20 -19
23 -26 13 -39 -10 -13 -10 -14 2 -4 10 10 19 8 39 -6 41 -28 235 -133 376
-204 118 -59 263 -152 253 -163 -3 -2 -48 21 -102 50 -120 66 -370 152 -488
167 -101 14 -120 20 -110 37 7 9 18 9 56 -4 26 -9 49 -14 52 -11 3 3 -19 13
-48 22 -29 10 -74 28 -100 42 -27 13 -48 19 -48 15 0 -5 18 -17 40 -27 42 -19
46 -26 31 -53 -8 -14 -3 -17 28 -19 20 -2 98 -18 175 -38 192 -48 383 -126
532 -216 17 -10 34 -16 37 -12 4 3 7 2 7 -4 0 -6 21 -27 48 -48 26 -21 6 3
-47 55 -114 112 -189 162 -476 314 -217 116 -292 162 -280 174 8 8 319 -152
479 -248 176 -105 300 -208 379 -315 l61 -84 12 28 c20 46 99 106 226 169 164
82 257 105 418 106 101 0 140 -4 205 -22 113 -33 265 -115 333 -180 l56 -54
-39 -19 c-44 -22 -70 -25 -59 -7 4 6 3 8 -4 5 -5 -4 -52 4 -102 18 -216 57
-475 59 -684 5 -131 -33 -167 -34 -59 0 204 64 426 85 572 56 72 -15 170 -43
246 -71 11 -4 6 2 -11 13 -35 23 -143 60 -283 98 -84 23 -108 26 -191 21 -108
-7 -308 -54 -390 -91 -63 -29 -63 -33 1 -10 105 38 296 74 409 79 l115 4 -115
-13 c-187 -22 -340 -59 -443 -107 -22 -10 -25 -14 -13 -21 9 -5 44 0 88 11
155 42 269 54 456 48 146 -4 196 -10 282 -31 143 -36 139 -34 103 -56 -40 -24
-52 -47 -46 -85 4 -26 -11 -50 -117 -185 -159 -202 -159 -202 -188 -195 -13 3
-130 61 -260 129 -182 95 -250 136 -294 177 -68 63 -152 105 -228 115 -46 6
-63 14 -103 49 -129 117 -324 211 -557 269 -99 24 -405 78 -442 78 -20 -1
-108 -50 -108 -61 0 -4 84 -43 188 -86 236 -99 564 -244 575 -254 5 -5 -5 -30
-22 -56 -51 -80 -49 -128 9 -180 12 -11 35 -46 51 -77 36 -71 60 -88 124 -88
30 0 59 -6 71 -15 23 -17 174 -21 205 -5 44 24 -2 127 -75 171 -29 17 -45 42
-46 70 0 3 24 0 53 -7 28 -7 64 -15 79 -18 16 -4 35 -20 48 -41 12 -19 23 -35
26 -35 5 0 -7 62 -17 82 -7 13 0 18 39 27 l47 12 110 -62 c61 -33 155 -84 210
-111 55 -28 162 -84 237 -125 106 -57 149 -76 190 -80 56 -5 37 -11 758 249
221 79 486 186 660 265 241 110 815 398 814 409 -1 5 -25 21 -54 36 -68 35
-106 71 -136 130 -13 26 -24 49 -24 52 0 2 14 7 30 11 32 7 40 29 14 39 -8 3
-13 2 -10 -3 3 -5 -13 -14 -37 -20 -274 -73 -381 -100 -626 -157 -527 -122
-817 -219 -898 -300 -22 -22 -83 -54 -104 -54 -32 0 23 103 83 156 71 62 200
123 348 164 36 10 160 40 275 65 116 26 269 68 340 93 72 25 177 60 235 79 58
18 87 31 65 28 -22 -4 -132 -37 -245 -75 -134 -45 -272 -83 -400 -110 -297
-63 -338 -74 -475 -135 -115 -52 -245 -164 -245 -213 0 -9 -20 4 -48 30 -64
60 -178 125 -282 162 -148 52 -347 49 -526 -8 l-74 -24 0 35 c0 67 47 117 150
161 80 34 148 43 265 37 193 -12 382 32 630 147 72 34 149 63 171 65 47 6 204
-39 314 -88 l64 -30 -24 27 c-29 30 -116 76 -180 95 -87 24 -78 28 160 70 72
13 165 21 248 22 163 2 134 16 -50 24 l-127 6 16 31 c9 17 47 62 86 100 48 47
59 63 37 50 -53 -31 -106 -81 -139 -131 -39 -58 -39 -49 -2 27 56 112 119 187
198 236 l38 23 -30 0 c-73 0 -163 -104 -267 -309 l-33 -65 -75 -7 c-41 -5 -94
-14 -117 -22 -24 -8 -43 -11 -43 -7 0 17 122 171 169 213 79 72 198 148 285
185 97 41 132 39 233 -12 137 -69 231 -164 363 -365 38 -58 77 -114 87 -125
17 -19 18 -19 21 -2 5 24 -73 158 -155 269 -138 186 -291 295 -430 305 -67 5
-124 29 -206 86 l-28 19 48 23 c66 30 108 68 132 118 31 63 27 196 -3 135 -12
-24 -42 -45 -51 -37 -3 3 1 19 10 35 8 16 15 39 15 52 0 16 13 30 44 49 46 28
76 68 76 101 0 18 -3 17 -30 -9 -22 -22 -37 -29 -57 -27 -28 3 -28 3 -25 73 3
50 9 76 21 90 23 25 41 60 41 77 -1 7 -7 1 -16 -14 -17 -32 -62 -58 -99 -58
-36 0 -31 12 16 35 64 31 84 65 83 138 -1 55 -23 127 -40 127 -2 0 0 -9 6 -20
32 -60 -16 -104 -83 -76 -44 18 -71 67 -103 189 -13 48 -36 114 -51 145 -36
73 -123 160 -195 195 -32 15 -65 39 -74 53 -21 31 -93 74 -124 74 -13 0 -43
19 -72 46 -27 25 -72 56 -101 69 -61 28 -174 39 -254 24z m347 -134 c25 -41
17 -64 -9 -25 -9 14 -36 47 -61 74 l-45 50 47 -32 c25 -17 56 -48 68 -67z
m-115 11 c58 -28 96 -55 77 -56 -7 0 -30 9 -52 20 -22 11 -53 20 -71 20 l-31
0 23 -21 c20 -16 20 -18 4 -11 -32 15 -119 23 -134 13 -12 -8 -8 -11 15 -16
40 -9 116 -36 112 -41 -2 -2 -23 3 -46 11 -23 8 -69 16 -103 17 l-60 3 31 26
c35 30 109 57 155 58 17 1 53 -10 80 -23z m254 -70 c15 -8 34 -23 42 -32 11
-15 7 -14 -22 4 -19 11 -46 26 -60 31 -18 7 -19 10 -6 10 10 1 30 -5 46 -13z
m-36 -77 c9 0 15 -3 13 -7 -2 -4 28 -24 67 -45 40 -20 108 -67 152 -104 44
-37 74 -59 66 -50 -7 9 -9 17 -4 17 16 0 64 -114 50 -119 -7 -2 -20 -10 -29
-18 -9 -8 -22 -12 -28 -8 -6 4 -11 1 -9 -6 1 -8 0 -41 -1 -74 l-2 -60 -8 47
c-12 70 -28 92 -23 31 6 -56 -15 -140 -52 -213 -20 -40 -143 -170 -160 -170
-4 0 13 23 37 51 110 129 138 179 138 241 0 49 -9 88 -20 88 -4 0 -10 -25 -14
-56 -12 -106 -88 -211 -203 -282 -29 -17 -53 -30 -53 -28 0 2 25 22 55 45 114
86 160 149 174 242 7 40 6 47 -5 38 -7 -6 -20 -32 -29 -57 -39 -120 -112 -200
-237 -263 -75 -38 -85 -37 -22 2 103 65 153 110 179 162 14 28 25 60 25 71 0
12 -10 0 -25 -30 -13 -27 -39 -67 -57 -88 -31 -37 -140 -116 -161 -116 -6 0
11 14 38 32 64 42 132 130 151 196 9 30 13 56 10 60 -4 3 -23 -2 -43 -12 -32
-15 -27 -8 39 56 51 50 80 88 91 118 l17 45 -5 -40 -4 -40 14 30 c9 18 13 44
9 65 -5 35 -5 34 28 -18 36 -55 48 -58 48 -10 0 45 -23 90 -67 129 -48 44
-201 128 -263 146 -44 13 -44 13 30 8 41 -3 83 -6 93 -6z m-1063 -34 c43 0 56
-3 49 -12 -27 -31 -119 -20 -139 17 -16 30 -12 35 11 14 16 -14 36 -19 79 -19z
m1188 -10 c74 -35 176 -120 166 -137 -4 -5 -24 7 -45 28 -21 21 -36 40 -34 43
7 6 -70 51 -135 78 -30 12 -48 23 -40 23 9 0 48 -16 88 -35z m-204 -6 c32 -12
66 -33 82 -52 25 -29 26 -36 22 -107 -5 -81 -15 -105 -84 -210 -58 -87 -98
-113 -183 -118 -41 -2 -82 2 -108 11 -40 14 -43 13 -43 -3 0 -26 48 -80 85
-96 23 -10 25 -13 9 -14 -32 0 -109 54 -121 86 -5 16 -16 45 -23 64 -27 77
-39 134 -33 159 6 21 9 15 14 -32 11 -99 61 -146 160 -153 43 -3 56 -1 39 5
-54 18 -91 43 -115 78 -30 45 -33 63 -5 38 11 -10 23 -16 26 -12 3 3 24 -4 46
-15 45 -23 114 -27 163 -8 86 33 165 142 165 229 0 73 -37 116 -129 152 -25
10 -41 18 -34 19 7 0 37 -9 67 -21z m-139 -75 c9 -15 12 -23 6 -20 -11 7 -35
46 -28 46 3 0 12 -12 22 -26z m85 -35 c36 -50 57 -134 43 -175 -17 -51 -107
-95 -165 -81 -13 4 -32 13 -43 22 -20 16 -20 16 2 6 54 -27 144 -8 181 37 32
40 4 145 -59 217 -27 31 -29 36 -11 26 12 -7 36 -30 52 -52z m-439 -148 c-209
-220 -268 -256 -451 -281 -111 -14 -144 -26 -188 -64 -24 -21 -32 -25 -25 -11
14 25 50 59 81 74 12 7 74 23 136 35 141 30 207 63 319 160 48 42 87 79 87 81
0 3 -21 -10 -47 -29 -72 -51 -149 -92 -238 -125 -80 -30 -80 -30 -50 -5 63 52
203 143 358 230 89 51 164 92 166 93 2 1 -65 -70 -148 -158z m395 114 c11 -28
12 -44 4 -75 -6 -22 -14 -41 -19 -44 -4 -3 -3 12 3 34 7 28 7 52 -1 80 -13 49
-7 52 13 5z m-359 -252 c-26 -76 -28 -231 -4 -285 46 -102 118 -142 246 -137
45 2 81 3 81 2 0 -2 -18 -15 -40 -29 -36 -24 -47 -26 -105 -22 -142 12 -273
114 -299 233 -6 30 -6 30 13 -5 28 -51 84 -112 122 -135 l34 -19 -18 24 c-45
63 -57 88 -68 140 -17 81 1 195 42 272 18 33 16 19 -4 -39z m844 -50 c-11 -21
-20 -35 -21 -31 0 12 33 78 38 74 2 -2 -6 -21 -17 -43z m146 -74 c17 -64 28
-263 13 -239 -6 9 -10 7 -14 -8 -4 -11 -24 -36 -45 -55 -37 -33 -39 -34 -84
-23 -26 6 -47 13 -47 17 0 4 15 12 33 19 79 32 157 129 156 195 0 27 -2 26
-14 -14 -13 -43 -61 -103 -99 -123 -14 -8 -10 2 13 30 32 41 51 89 51 127 0
13 -10 2 -28 -31 -44 -80 -55 -91 -148 -166 -104 -82 -146 -105 -206 -113 -39
-5 -37 -3 23 18 79 27 118 55 220 158 93 93 139 177 139 253 1 62 12 48 37
-45z m-888 -32 c30 -34 85 -64 138 -76 l38 -9 -41 -1 c-59 -1 -122 35 -161 93
-18 27 -33 53 -33 59 0 6 7 0 17 -13 9 -14 28 -38 42 -53z m782 36 c1 -21 0
-51 -1 -68 -2 -36 -61 -127 -98 -151 l-27 -17 22 24 c25 27 62 106 63 131 0
35 22 118 31 118 5 0 9 -17 10 -37z m232 -3 c18 0 39 6 46 13 11 10 11 8 2
-10 -21 -41 -67 -38 -121 7 l-25 21 32 -15 c18 -9 47 -16 66 -16z m-703 -22
c-11 -18 -31 -46 -45 -63 -15 -16 -8 -2 15 33 43 65 63 86 30 30z m389 -60
c-13 -29 -38 -79 -56 -111 -18 -33 -33 -62 -33 -65 0 -11 -84 -61 -130 -77
-23 -8 -57 -15 -74 -15 -24 1 -12 7 49 29 135 46 148 59 215 204 46 101 68
128 29 35z m-707 -65 c25 -34 63 -60 106 -73 26 -8 26 -8 -6 -9 -74 -2 -145
68 -166 164 -6 28 -5 28 18 -10 14 -22 35 -54 48 -72z m982 56 c-6 -11 -24 -2
-24 11 0 5 7 7 15 4 8 -4 12 -10 9 -15z m-1570 -112 c67 -102 178 -167 285
-167 17 0 38 -11 55 -29 38 -40 107 -68 186 -75 58 -6 67 -10 93 -42 38 -45
92 -72 162 -80 60 -7 85 -28 85 -71 0 -20 2 -21 25 -11 14 6 25 14 25 18 0 4
17 11 38 15 32 6 121 50 174 88 14 9 21 8 35 -5 16 -16 16 -19 -2 -38 -10 -11
-36 -25 -57 -32 -47 -14 -44 -32 6 -36 31 -3 42 2 71 31 28 28 35 43 35 73 0
26 3 35 10 28 17 -17 14 -81 -4 -111 l-17 -28 26 29 c23 25 25 34 19 70 -3 22
-13 54 -21 69 -15 29 -10 47 11 47 24 0 41 -32 47 -89 4 -49 6 -52 13 -28 18
59 -18 137 -63 137 -11 0 -44 -22 -73 -50 -29 -27 -56 -50 -60 -50 -27 0 25
92 68 120 61 41 120 13 145 -68 29 -98 -43 -209 -162 -252 -46 -17 -82 -7 -99
25 -13 25 -14 25 -22 6 -4 -11 -21 -24 -39 -28 -28 -8 -34 -17 -64 -97 -68
-179 -119 -228 -348 -326 -129 -55 -180 -62 -237 -31 -58 30 -82 101 -36 101
14 0 28 5 31 10 4 6 -6 10 -23 10 -17 0 -40 9 -53 20 l-24 19 67 1 c37 0 79 5
93 10 18 7 33 7 48 -2 20 -10 21 -10 8 6 -8 9 -23 22 -34 28 -16 8 -19 8 -14
-5 4 -12 -4 -16 -36 -19 -70 -5 -140 5 -143 22 -2 8 -6 25 -9 37 -6 18 -2 22
27 28 36 8 58 22 58 38 0 5 -8 3 -17 -6 -10 -8 -48 -18 -85 -22 -77 -8 -78 -7
-53 65 8 23 19 69 25 102 14 91 -2 126 -99 215 -44 41 -90 87 -101 103 -34 47
-63 255 -43 306 6 17 7 17 17 -1 6 -10 29 -45 50 -78z m675 -42 c51 0 58 -2
44 -12 -41 -31 -118 -8 -161 47 -45 58 -41 71 5 20 l51 -55 61 0z m511 68 c0
-26 -37 -77 -71 -97 -30 -18 -29 -16 10 23 46 46 53 66 19 55 -23 -6 -22 -6 2
18 27 26 40 26 40 1z m-1030 -118 c16 -8 53 -22 82 -29 49 -14 50 -15 18 -15
-48 -1 -128 39 -170 85 l-35 38 38 -32 c20 -17 51 -39 67 -47z m738 15 c-7
-11 -17 -20 -22 -20 -5 0 -1 9 9 20 10 11 20 20 22 20 2 0 -2 -9 -9 -20z m49
-57 c-20 -37 -65 -79 -100 -92 -36 -14 -114 -14 -122 -1 -4 6 9 10 32 10 55 0
137 44 170 90 31 42 43 38 20 -7z m-558 -27 c20 -24 108 -56 173 -63 56 -6 60
-7 33 -15 -55 -15 -168 19 -210 62 -16 17 -24 30 -18 30 6 0 16 -6 22 -14z
m236 -12 l60 -14 -52 4 c-29 3 -65 12 -80 21 -15 9 -19 13 -8 10 11 -4 47 -13
80 -21z m785 11 c-18 -22 -80 -36 -115 -26 -27 9 -26 9 20 10 28 1 61 8 75 16
32 18 35 18 20 0z m-1641 -91 c-9 -11 -6 -14 19 -14 17 0 43 5 58 10 26 10 27
10 12 -12 -15 -21 -23 -23 -107 -23 -90 0 -92 0 -115 -31 -27 -33 -103 -90
-111 -82 -3 3 4 17 16 32 16 20 24 24 29 15 6 -8 13 -2 24 19 9 18 29 47 45
65 26 29 35 33 85 33 46 1 54 -1 45 -12z m1234 -9 c-10 -14 -45 -38 -78 -55
-59 -29 -59 -29 -20 -23 22 3 60 14 85 24 l45 19 -27 -24 c-28 -25 -103 -46
-162 -46 -50 0 -157 36 -191 65 l-30 25 45 -16 c54 -18 173 -29 223 -20 19 4
55 22 78 41 53 41 55 42 32 10z m-1119 -56 c-14 -24 -74 -40 -125 -33 -61 8
-56 18 9 15 26 -1 63 5 82 13 43 19 43 19 34 5z m173 -31 c37 -36 41 -48 15
-48 -27 0 -50 21 -58 53 -8 35 3 34 43 -5z m-387 7 c-14 -7 -27 -11 -30 -9 -6
7 22 24 40 23 9 0 5 -6 -10 -14z m97 -28 c39 -10 97 -3 158 20 6 2 30 -14 54
-35 l44 -39 -5 -102 c-3 -57 -2 -121 3 -144 9 -52 1 -58 -68 -55 -56 2 -69 -4
-58 -22 17 -27 57 -31 101 -9 24 11 47 18 51 16 5 -3 6 69 4 159 -2 124 0 164
9 164 22 0 90 -43 95 -61 10 -30 -13 -129 -41 -178 l-25 -46 21 -17 c12 -10
37 -18 56 -18 29 0 34 -3 34 -24 0 -13 -7 -43 -15 -66 -18 -52 -12 -64 11 -23
l17 30 24 -44 c13 -24 23 -55 23 -68 0 -28 -151 -206 -226 -267 -50 -41 -74
-42 -125 -7 -48 34 -52 49 -6 23 l46 -25 60 63 c77 82 98 109 116 152 23 54
18 66 -9 22 -29 -48 -157 -162 -192 -170 -29 -8 -129 42 -208 102 -72 54 -96
106 -96 207 0 57 -8 114 -26 181 -30 115 -34 196 -11 240 18 34 47 63 47 46 0
-7 11 -6 33 3 17 8 39 12 47 9 8 -3 34 -10 57 -17z m1861 -9 c-9 -13 -28 -24
-44 -26 -28 -3 -28 -2 11 22 50 30 50 30 33 4z m-2091 -125 c-2 -16 -4 -5 -4
22 0 28 2 40 4 28 2 -13 2 -35 0 -50z m1881 -77 c32 -24 86 -58 121 -76 l64
-32 -53 -24 c-53 -24 -194 -118 -239 -158 -18 -16 -12 1 29 84 29 58 56 117
61 133 13 44 -7 31 -25 -17 -10 -25 -41 -83 -70 -129 -58 -92 -252 -337 -267
-337 -5 0 -38 14 -72 32 -51 26 -74 32 -129 32 -38 1 -68 5 -68 9 0 5 44 29
98 54 219 102 351 221 426 383 21 46 52 90 63 90 3 0 30 -20 61 -44z m-357 8
c44 -48 132 -69 181 -43 31 17 33 4 5 -44 -63 -107 -185 -206 -363 -295 l-81
-41 -26 27 -26 27 55 39 c69 50 103 104 148 234 20 57 38 108 42 113 10 17 41
9 65 -17z m-1423 -507 c12 -33 22 -60 22 -60 0 -1 -15 -3 -34 -4 -18 -1 -65
-18 -104 -37 -40 -20 -76 -36 -80 -36 -14 0 -23 71 -14 105 7 24 24 38 88 72
90 48 89 49 122 -40z m694 63 c18 -11 54 -23 81 -26 26 -4 47 -9 47 -12 0 -11
-132 -246 -156 -279 -23 -30 -26 -31 -93 -31 -63 1 -72 3 -97 29 -26 27 -27
30 -15 71 25 83 69 154 131 211 34 31 63 57 65 57 3 0 19 -9 37 -20z m291 -70
c61 -46 137 -141 137 -171 0 -13 -12 -21 -37 -28 -113 -30 -233 -59 -265 -65
-45 -8 -47 0 -19 71 11 26 27 66 35 88 l16 40 -30 -34 c-16 -19 -44 -65 -61
-102 -19 -40 -39 -69 -50 -72 -16 -4 -13 6 18 61 68 126 103 180 119 186 28
11 89 -12 133 -51 l43 -37 -15 30 c-23 45 -93 104 -122 104 -26 0 -26 0 -8 24
15 20 21 22 33 12 8 -7 41 -32 73 -56z m-820 -34 c18 -14 17 -14 -2 -21 -13
-4 -21 -15 -21 -27 0 -20 1 -21 20 -3 11 10 21 16 23 14 2 -2 15 -23 30 -46
15 -23 38 -50 52 -59 24 -16 25 -34 2 -34 -7 0 -25 11 -41 25 -37 32 -43 32
-22 0 15 -24 15 -25 -2 -25 -12 0 -33 24 -60 70 -45 75 -49 89 -30 108 15 15
29 15 51 -2z m1108 -7 c19 -7 39 -16 44 -22 13 -13 -42 -2 -86 17 -26 11 -29
15 -13 15 12 1 36 -4 55 -10z m-1236 -59 c28 -29 28 -30 7 -30 -60 0 -177 -89
-218 -165 -10 -19 -21 -35 -25 -35 -8 0 -20 56 -15 72 3 7 7 25 10 40 9 41 65
98 121 124 66 31 85 30 120 -6z m377 -65 c-5 -27 -18 -40 -26 -27 -4 8 20 52
28 52 2 0 1 -11 -2 -25z m-336 -6 c8 -14 -14 -29 -42 -29 -30 0 -84 -39 -112
-80 -18 -27 -23 -45 -20 -80 3 -25 8 -52 11 -60 6 -13 0 -15 -33 -12 -39 4
-40 5 -40 41 0 87 35 153 109 202 46 30 113 40 127 18z m3 -49 c34 -18 31 -37
-14 -84 -42 -44 -83 -136 -69 -157 12 -20 -19 -7 -41 17 -82 89 -34 199 103
233 2 1 11 -3 21 -9z m336 -37 l39 -26 -50 -17 c-85 -29 -148 -67 -191 -113
-41 -44 -62 -100 -49 -132 4 -11 -9 -22 -45 -41 -66 -33 -84 -22 -75 46 11 82
35 135 80 179 45 44 197 130 231 131 11 0 38 -12 60 -27z m2397 -111 c17 -24
43 -51 59 -61 29 -18 26 -18 -188 -24 -348 -10 -584 -45 -887 -132 -194 -55
-388 -131 -481 -187 -57 -35 -174 -84 -297 -125 -13 -4 -18 0 -18 14 0 22 72
67 170 106 577 231 890 311 1306 337 223 14 364 30 204 24 -474 -20 -723 -66
-1161 -214 -145 -49 -265 -88 -267 -85 -7 6 98 56 203 95 132 50 372 120 565
166 85 20 288 69 450 109 l295 72 9 -26 c5 -14 22 -45 38 -69z m-2732 31 c-25
-26 -46 -50 -47 -52 -2 -2 -3 1 -3 7 0 16 69 92 83 92 6 0 -9 -21 -33 -47z
m2830 -148 c0 -7 -511 -262 -675 -337 -296 -136 -458 -198 -1045 -402 -135
-46 -269 -94 -298 -105 -57 -23 -107 -27 -117 -10 -8 12 15 48 132 211 119
165 126 170 268 198 l118 23 30 44 c28 39 42 47 156 92 145 57 206 78 351 120
258 74 533 135 710 156 103 13 370 20 370 10z m-3920 -61 c278 -47 505 -121
662 -215 45 -27 98 -64 116 -82 l32 -33 -46 -33 -46 -32 -24 22 c-21 20 -36
21 -79 9 -5 -2 -68 25 -140 59 -71 35 -245 112 -385 173 -268 116 -350 154
-350 164 0 8 87 -2 260 -32z m696 -86 l19 -21 -27 18 c-29 18 -34 25 -20 25 5
0 17 -10 28 -22z m-181 -282 c16 -12 17 -22 12 -95 -4 -44 -5 -81 -2 -81 2 0
9 34 16 75 6 41 15 75 19 75 23 0 33 -34 27 -95 -6 -67 9 -142 37 -180 13 -18
13 -15 3 25 -15 56 -13 239 3 254 16 16 50 -28 50 -65 0 -16 6 -46 14 -66 8
-21 17 -55 21 -75 7 -47 25 -60 25 -18 0 28 2 30 21 20 44 -24 99 -83 99 -105
0 -21 -6 -24 -55 -30 -65 -9 -118 0 -136 21 -10 12 -25 14 -69 9 -65 -8 -77 0
-112 69 -11 22 -34 61 -50 84 -35 51 -33 79 8 149 26 46 39 51 69 29z m465
-13 l45 -20 -30 -13 c-67 -28 -235 -21 -235 10 0 4 15 18 33 29 40 27 120 24
187 -6z"/>
<path d="M3310 3235 c19 -19 36 -35 39 -35 3 0 -10 16 -29 35 -19 19 -36 35
-39 35 -3 0 10 -16 29 -35z"/>
<path d="M2932 2928 c-7 -7 -27 -18 -45 -25 -26 -9 -28 -12 -10 -12 18 -1 90
48 73 49 -4 0 -12 -6 -18 -12z"/>
<path d="M2818 2893 c7 -3 16 -2 19 1 4 3 -2 6 -13 5 -11 0 -14 -3 -6 -6z"/>
<path d="M2243 2233 c-26 -18 26 -53 79 -53 30 0 36 -5 52 -40 20 -45 68 -90
97 -90 24 0 82 23 112 45 21 16 18 16 -49 10 -67 -6 -72 -5 -102 20 -18 15
-32 31 -32 36 0 5 21 9 48 10 26 0 70 4 97 7 l50 7 -30 12 c-67 28 -296 53
-322 36z"/>
<path d="M1958 1993 c6 -2 18 -2 25 0 6 3 1 5 -13 5 -14 0 -19 -2 -12 -5z"/>
<path d="M1662 1961 c-9 -5 1 -8 28 -8 27 0 37 3 28 8 -7 5 -20 9 -28 9 -8 0
-21 -4 -28 -9z"/>
<path d="M1703 1868 c-48 -10 -56 -24 -19 -34 44 -11 81 -1 84 24 4 24 0 25
-65 10z"/>
<path d="M1780 1761 c-16 -30 -12 -38 20 -55 17 -8 30 -10 30 -5 0 5 11 9 25
9 14 0 25 5 25 10 0 13 -37 13 -45 0 -4 -7 -13 -6 -26 1 -16 8 -19 17 -15 35
8 29 1 31 -14 5z"/>
<path d="M1855 1640 c-44 -3 -73 -7 -64 -8 9 -1 21 -14 27 -28 10 -21 18 -25
45 -22 20 2 32 8 32 18 0 8 14 23 30 32 17 9 26 17 20 16 -5 -1 -46 -5 -90 -8z"/>
<path d="M1239 3633 c-13 -16 -12 -17 4 -4 9 7 17 15 17 17 0 8 -8 3 -21 -13z"/>
<path d="M1180 3530 c-23 -7 -23 -8 -3 -9 12 -1 25 4 28 9 3 6 5 10 3 9 -2 -1
-14 -5 -28 -9z"/>
<path d="M4745 3473 c-121 -65 -297 -264 -361 -409 -21 -47 -27 -54 -39 -44
-8 7 -15 18 -15 25 0 8 -8 11 -20 8 -11 -3 -20 -11 -20 -17 0 -8 -29 -3 -86
17 -195 65 -318 83 -374 54 -29 -15 -37 -42 -19 -63 7 -9 56 -37 108 -62 64
-32 113 -65 155 -105 60 -58 62 -59 109 -53 47 5 47 5 47 -25 0 -17 6 -32 15
-35 8 -4 15 -12 15 -20 0 -14 46 -64 59 -64 5 0 14 -7 21 -15 7 -9 18 -14 24
-12 6 2 23 1 37 -3 15 -5 32 -4 39 0 15 9 15 74 1 113 -10 26 -10 27 10 16 15
-8 24 -8 32 0 7 7 -1 27 -27 66 -20 31 -34 61 -30 67 4 6 3 8 -3 5 -5 -3 -19
11 -31 32 l-22 39 25 56 c24 55 103 186 111 186 3 0 -2 -15 -11 -32 -15 -32
-15 -32 2 -8 9 14 39 46 66 73 60 58 54 63 -8 6 -25 -23 -45 -37 -45 -31 0 6
41 47 91 91 62 55 99 81 116 81 36 0 24 -20 -28 -47 -24 -13 -51 -31 -59 -39
-8 -8 13 0 48 20 34 19 62 31 62 25 0 -5 7 -9 15 -9 20 0 19 -29 -2 -52 -14
-15 -17 -35 -15 -99 3 -76 2 -79 -20 -80 -20 0 -21 -1 -4 -8 16 -6 15 -10 -16
-37 -18 -16 -45 -37 -58 -47 -14 -10 -20 -15 -13 -12 6 3 24 0 39 -6 23 -8 25
-12 14 -19 -11 -7 -12 -10 -2 -10 26 0 40 -27 40 -73 0 -26 -3 -47 -7 -47 -4
0 -7 -10 -7 -22 1 -16 -4 -23 -16 -22 -10 1 -14 -4 -11 -12 3 -7 -9 -20 -27
-29 -31 -16 -33 -16 -58 7 -15 13 -20 15 -13 6 24 -31 -2 -19 -63 28 l-59 47
28 -37 c35 -46 71 -72 127 -92 38 -13 44 -13 54 1 6 8 16 15 22 15 6 0 18 10
26 22 l16 22 23 -22 c39 -37 54 -25 17 13 -27 28 -32 39 -24 53 5 9 9 41 8 70
-1 48 -6 57 -38 88 l-37 35 31 25 c44 37 53 60 56 137 2 52 10 84 32 130 43
90 46 104 28 132 -19 29 -39 31 -81 8z m55 -42 c0 -12 -39 -25 -48 -16 -7 7
17 25 36 25 6 0 12 -4 12 -9z m-2 -33 c-6 -17 -36 -34 -45 -24 -4 4 1 14 11
22 24 17 39 18 34 2z m-925 -305 c-7 -2 -19 -2 -25 0 -7 3 -2 5 12 5 14 0 19
-2 13 -5z m127 -3 c11 -7 3 -10 -28 -10 -26 0 -41 4 -37 10 8 13 45 13 65 0z
m-20 -40 c-7 -13 -6 -19 3 -23 9 -3 13 3 13 17 -1 17 5 22 38 24 63 5 281 -56
263 -74 -3 -3 -18 1 -34 9 -15 8 -39 17 -53 21 -14 4 7 -9 46 -27 39 -19 75
-40 78 -46 8 -12 -16 -35 -88 -83 -62 -42 -91 -37 -158 27 -32 30 -58 59 -58
64 0 5 10 17 22 25 12 9 19 16 14 16 -4 0 -20 -9 -35 -19 -23 -17 -30 -17 -56
-7 -17 7 -36 20 -44 29 -7 10 -20 17 -28 17 -11 0 -13 5 -8 18 4 9 8 22 8 27
0 6 19 8 43 7 39 -4 42 -6 34 -22z m-100 4 c0 -9 -7 -14 -17 -12 -25 5 -28 28
-4 28 12 0 21 -6 21 -16z m488 -171 c9 -21 20 -40 24 -43 15 -11 38 -81 38
-114 0 -35 -24 -56 -43 -37 -5 5 -15 7 -22 5 -7 -3 -19 3 -26 14 -8 11 -18 19
-23 18 -5 0 -14 8 -20 18 -6 11 -19 28 -28 38 -10 10 -18 31 -18 47 0 24 9 36
43 60 23 17 45 30 50 31 4 0 15 -17 25 -37z"/>
<path d="M4138 3003 c7 -3 16 -2 19 1 4 3 -2 6 -13 5 -11 0 -14 -3 -6 -6z"/>
<path d="M4188 2993 c7 -3 16 -2 19 1 4 3 -2 6 -13 5 -11 0 -14 -3 -6 -6z"/>
<path d="M4267 2969 c7 -7 15 -10 18 -7 3 3 -2 9 -12 12 -14 6 -15 5 -6 -5z"/>
<path d="M4341 3144 c0 -11 3 -14 6 -6 3 7 2 16 -1 19 -3 4 -6 -2 -5 -13z"/>
<path d="M4460 3139 c-7 -11 -10 -23 -7 -25 2 -2 9 7 15 21 14 30 7 33 -8 4z"/>
<path d="M4519 3123 l-24 -28 28 24 c25 23 32 31 24 31 -2 0 -14 -12 -28 -27z"/>
<path d="M4210 3112 c0 -12 19 -26 26 -19 2 2 -2 10 -11 17 -9 8 -15 8 -15 2z"/>
<path d="M4450 3045 c-18 -19 -32 -36 -29 -38 2 -2 19 14 38 35 42 48 36 50
-9 3z"/>
<path d="M4396 2993 c-6 -14 -5 -15 5 -6 7 7 10 15 7 18 -3 3 -9 -2 -12 -12z"/>
<path d="M4545 3000 c-19 -8 -19 -9 3 -9 12 -1 22 4 22 9 0 6 -1 10 -2 9 -2 0
-12 -4 -23 -9z"/>
<path d="M4498 2983 c7 -3 16 -2 19 1 4 3 -2 6 -13 5 -11 0 -14 -3 -6 -6z"/>
<path d="M4458 2943 c7 -3 16 -2 19 1 4 3 -2 6 -13 5 -11 0 -14 -3 -6 -6z"/>
<path d="M4528 2933 c7 -3 16 -2 19 1 4 3 -2 6 -13 5 -11 0 -14 -3 -6 -6z"/>
<path d="M1187 2923 c-4 -3 -7 -16 -6 -27 0 -19 1 -19 8 -3 6 17 8 17 20 3 21
-26 33 -18 15 9 -17 26 -26 30 -37 18z"/>
<path d="M4613 2913 c9 -2 25 -2 35 0 9 3 1 5 -18 5 -19 0 -27 -2 -17 -5z"/>
<path d="M1156 2865 c-3 -10 -2 -14 5 -10 6 4 19 -1 30 -11 17 -15 23 -15 44
-4 13 7 22 17 18 23 -3 5 -10 2 -15 -7 -12 -21 -27 -20 -54 5 -19 18 -22 18
-28 4z"/>
<path d="M4530 2845 c13 -14 26 -25 28 -25 3 0 -5 11 -18 25 -13 14 -26 25
-28 25 -3 0 5 -11 18 -25z"/>
<path d="M1360 2588 c0 -7 -12 -26 -27 -42 -16 -17 -19 -23 -7 -13 26 21 31
21 37 0 3 -11 5 -7 6 10 0 15 5 27 9 27 10 0 52 -56 52 -69 0 -12 -36 -24 -49
-17 -5 4 -11 1 -13 -6 -3 -8 -14 -5 -36 11 -18 12 -32 17 -32 11 0 -6 9 -14
21 -18 11 -5 20 -12 20 -17 0 -6 9 -13 20 -17 13 -5 19 -3 19 7 0 8 6 15 13
15 7 0 22 7 34 15 l22 16 -35 49 c-35 49 -54 62 -54 38z"/>
<path d="M1145 2210 c-8 -16 -15 -45 -15 -65 l0 -36 -32 17 -33 16 26 -24 c33
-29 46 -61 23 -56 -9 2 -27 23 -40 48 -26 50 -79 103 -97 97 -6 -2 -14 -14
-17 -28 -5 -21 -14 -25 -59 -31 -55 -6 -89 -27 -76 -47 3 -6 30 -23 58 -37 29
-15 64 -35 79 -46 15 -11 37 -20 48 -21 11 -1 20 -4 20 -8 0 -8 39 -22 60 -21
39 2 55 11 66 37 7 17 14 23 18 16 10 -16 36 -14 36 4 0 8 5 15 10 15 6 0 10
6 9 13 -1 6 1 20 6 30 4 11 2 29 -5 45 -8 15 -13 30 -12 35 5 18 -28 77 -42
77 -9 0 -22 -13 -31 -30z m33 -43 c-6 -12 -6 -17 0 -13 14 8 30 -14 34 -49 2
-21 -2 -30 -13 -33 -41 -8 -66 72 -37 118 16 25 31 4 16 -23z m-162 -15 c13
-8 54 -73 54 -85 0 -4 -21 -7 -47 -5 -44 3 -48 5 -51 30 -3 27 12 68 26 68 4
0 12 -4 18 -8z m-77 -34 c0 -7 -3 -21 -7 -30 -6 -15 -9 -15 -30 3 -13 10 -21
23 -17 29 9 14 55 12 54 -2z m257 -75 c-7 -7 -26 7 -26 19 0 6 6 6 15 -2 9 -7
13 -15 11 -17z m-151 -9 c-23 -17 -66 -15 -73 4 -2 8 10 12 45 12 45 -1 47 -2
28 -16z m83 -17 c3 -24 0 -27 -27 -27 -63 0 -78 20 -33 44 37 21 56 16 60 -17z"/>
<path d="M818 1144 c129 -46 189 -63 162 -46 -23 15 -250 92 -269 91 -9 0 39
-20 107 -45z"/>
<path d="M498 1068 c-9 -5 -6 -8 9 -8 55 0 341 -66 468 -107 150 -49 259 -99
370 -171 89 -57 64 -25 -30 38 -99 67 -180 106 -314 150 -151 51 -478 114
-503 98z"/>
<path d="M2884 971 c-37 -22 -94 -90 -94 -111 0 -8 11 2 25 21 13 20 43 53 67
73 48 40 49 45 2 17z"/>
<path d="M2027 964 c-146 -32 -353 -126 -417 -190 -16 -16 1 -8 44 20 210 138
480 195 688 147 85 -19 277 -104 358 -157 14 -9 10 -2 -10 16 -52 47 -242 136
-340 160 -100 23 -224 25 -323 4z"/>
<path d="M2029 901 c-82 -18 -253 -81 -272 -100 -5 -5 33 7 85 26 174 66 314
85 461 62 77 -12 268 -75 351 -115 30 -15 43 -18 31 -8 -35 29 -197 102 -275
124 -109 31 -270 35 -381 11z"/>
<path d="M1716 708 c5 -8 1 -9 -12 -4 -14 5 -16 4 -7 -4 7 -8 17 -9 28 -3 16
9 16 10 1 16 -12 5 -15 3 -10 -5z"/>
</g>
</svg>